<svg width="50" height="50" viewBox="0 0 50 50" fill="none" xmlns="http://www.w3.org/2000/svg">
<path d="M49.0308 10.0485C49.0275 10.0485 49.0243 10.0485 49.0211 10.0485H45.7356V8.9242C45.7533 8.47923 45.4655 8.07932 45.0378 7.95502C42.7568 7.35728 40.408 7.05756 38.05 7.06338C34.1733 7.06338 28.8913 7.93564 24.9855 11.9093C21.1087 7.89687 15.7879 7.06338 11.9209 7.06338C9.5629 7.05756 7.21409 7.35728 4.93313 7.95502C4.50548 8.07932 4.21763 8.47923 4.23532 8.9242V10.0388H0.96918C0.43395 10.0388 0 10.4727 0 11.0079V41.9635C0 42.4988 0.43395 42.9327 0.96918 42.9327C1.13564 42.9322 1.29919 42.8889 1.44408 42.8067C1.541 42.7583 11.2328 37.4569 24.7626 40.8684H24.9079H24.9952C25.0724 40.8777 25.1505 40.8777 25.2278 40.8684C38.7963 37.4278 48.4881 42.7195 48.5462 42.8067C48.8461 42.9799 49.2156 42.9799 49.5154 42.8067C49.8134 42.6347 49.9979 42.3174 50 41.9732V11.0176C50 10.4824 49.5662 10.0485 49.0308 10.0485ZM1.93836 40.4226V11.9868H4.2547V36.2938C4.24864 36.8291 4.67763 37.2679 5.21286 37.2739C5.26519 37.2745 5.31753 37.2709 5.36926 37.263C7.37425 36.9569 9.3985 36.7949 11.4266 36.7784C14.236 36.7297 17.0337 37.1523 19.7034 38.0287C13.6745 37.2996 7.55924 38.1237 1.93836 40.4226ZM11.4266 34.8498C9.66382 34.8538 7.90306 34.967 6.15429 35.189V9.68985C8.04129 9.26947 9.96826 9.05492 11.9015 9.0502C15.5263 9.0502 20.5272 9.88369 23.9969 13.7992L24.026 37.9415C22.0101 36.6234 18.0752 34.8498 11.4266 34.8498ZM25.9643 13.7992C29.434 9.92246 34.435 9.0502 38.0597 9.0502C39.9929 9.05589 41.9198 9.27032 43.8069 9.68985V35.189C42.068 34.965 40.3169 34.8484 38.5637 34.8401C31.9539 34.8401 28.0093 36.6137 25.9643 37.9318V13.7992ZM48.0519 40.4226C42.4191 38.1174 36.2897 37.2932 30.2481 38.0287C32.9304 37.1491 35.7414 36.7265 38.5637 36.7784C40.6045 36.7898 42.6419 36.9485 44.6598 37.2533C45.189 37.3337 45.6832 36.9697 45.7635 36.4406C45.7713 36.3888 45.775 36.3365 45.7744 36.2842V11.9868H48.0907L48.0519 40.4226Z" fill="black"/>
</svg>
