<svg width="30" height="30" viewBox="0 0 30 30" fill="none" xmlns="http://www.w3.org/2000/svg">
<g clip-path="url(#clip0)">
<path d="M19.6391 9.68609C20.1538 9.17134 20.1538 8.33683 19.6391 7.82184C19.1243 7.30708 18.2896 7.30708 17.7748 7.82184L7.10658 18.4901C5.48975 20.1071 5.48975 22.7381 7.10681 24.355C7.91523 25.1634 8.97724 25.5676 10.039 25.5676C11.1011 25.5676 12.1631 25.1634 12.9715 24.355L18.0694 19.2573L18.0696 19.2571L26.6502 10.6762C29.1027 8.22376 29.1027 4.23319 26.6502 1.7807C24.1977 -0.671777 20.2072 -0.671548 17.7547 1.7807L5.97521 13.5602C5.95393 13.5812 5.93493 13.6039 5.91547 13.6261L3.98416 15.5574C2.39731 17.1442 1.52344 19.2616 1.52344 21.5191C1.52344 23.7766 2.39731 25.8938 3.98416 27.4806C5.57101 29.0674 7.68817 29.9413 9.94565 29.9413C12.2031 29.9413 14.3205 29.0674 15.9074 27.4806L25.6198 17.7682C26.1346 17.2534 26.1346 16.4187 25.6198 15.9039C25.105 15.3889 24.2703 15.3889 23.7555 15.9039L14.0429 25.6163C12.9541 26.7054 11.4991 27.3048 9.94565 27.3048C8.39222 27.3048 6.93721 26.7054 5.84841 25.6163C4.75939 24.5276 4.15971 23.0723 4.15971 21.5191C4.15971 19.9657 4.75939 18.5107 5.84841 17.4216L15.5608 7.70923C15.5821 7.68794 15.6013 7.66529 15.6208 7.64285L19.6187 3.64496C21.0433 2.22039 23.3614 2.22039 24.7857 3.64473C26.2103 5.06929 26.2103 7.38742 24.7857 8.81199L21.7759 11.8218C21.7757 11.822 21.7755 11.8223 21.7752 11.8225L11.1072 22.4907C10.5183 23.0796 9.55998 23.0796 8.97106 22.4907C8.38192 21.9018 8.38192 20.9435 8.97106 20.3543L19.6391 9.68609Z" fill="#0860D5"/>
</g>
<defs>
<clipPath id="clip0">
<rect width="30" height="30" fill="white"/>
</clipPath>
</defs>
</svg>
