<svg width="54" height="54" viewBox="0 0 54 54" fill="none" xmlns="http://www.w3.org/2000/svg">
<path d="M41.3152 14.0018C41.3152 15.6377 40.1242 16.6326 39.2546 17.3627C38.9252 17.6392 38.3122 18.1438 38.3138 18.3323C38.3198 19.0717 37.7253 19.6621 36.9858 19.6621C36.9821 19.6621 36.9784 19.6621 36.9747 19.6621C36.2404 19.6621 35.6421 19.0898 35.6361 18.3542C35.6244 16.9042 36.6825 16.0359 37.5328 15.322C38.2 14.7618 38.6375 14.3676 38.6375 14.0068C38.6375 13.2765 38.0434 12.6824 37.3131 12.6824C36.5825 12.6824 35.9883 13.2765 35.9883 14.0068C35.9883 14.7463 35.3889 15.3457 34.6494 15.3457C33.9099 15.3457 33.3106 14.7463 33.3106 14.0068C33.3106 11.8001 35.1059 10.0047 37.3128 10.0047C39.5198 10.0046 41.3152 11.7949 41.3152 14.0018ZM37.0117 20.898C36.2722 20.898 35.7025 21.4973 35.7025 22.2368V22.2471C35.7025 22.9866 36.2724 23.5809 37.0117 23.5809C37.7511 23.5809 38.3506 22.9763 38.3506 22.2368C38.3506 21.4973 37.7512 20.898 37.0117 20.898ZM10.0253 30.2242C9.28577 30.2242 8.68641 30.8236 8.68641 31.5631C8.68641 32.3025 9.28577 32.9019 10.0253 32.9019H10.1368C10.8763 32.9019 11.4757 32.3025 11.4757 31.5631C11.4757 30.8236 10.8763 30.2242 10.1368 30.2242H10.0253ZM14.6783 30.2242C13.9388 30.2242 13.3395 30.8236 13.3395 31.5631C13.3395 32.3025 13.9388 32.9019 14.6783 32.9019H14.7898C15.5292 32.9019 16.1286 32.3025 16.1286 31.5631C16.1286 30.8236 15.5292 30.2242 14.7898 30.2242H14.6783ZM54 8.84007V23.9096C54 27.4777 51.139 30.373 47.571 30.373H30.2082C29.8687 30.373 29.5892 30.371 29.3553 30.3661C29.1103 30.3611 28.8345 30.3591 28.727 30.371C28.6149 30.4454 28.3403 30.697 28.0757 30.9408C27.9708 31.0373 27.8521 31.1436 27.724 31.2605L22.8117 35.7379C22.4198 36.0953 21.8401 36.1879 21.3548 35.974C20.8696 35.7599 20.5289 35.2794 20.5289 34.7491V20.5548H6.5038C4.41193 20.5548 2.67769 22.269 2.67769 24.3605V39.4301C2.67769 41.5218 4.41208 43.1664 6.5038 43.1664H25.8983C26.2322 43.1664 26.5446 43.3197 26.7913 43.545L30.7934 47.2348V34.51C30.7934 33.7705 31.3927 33.1712 32.1322 33.1712C32.8717 33.1712 33.4711 33.7705 33.4711 34.51V50.2694C33.4711 50.7997 33.1676 51.2731 32.6822 51.4871C32.5086 51.5637 32.3342 51.5939 32.1517 51.5939C31.8239 51.5939 31.5004 51.4593 31.2489 51.2296L25.3793 45.8439H6.5038C2.93564 45.8439 0 42.9981 0 39.43V24.3605C0 20.7925 2.93564 17.8771 6.5038 17.8771H20.5289V8.84007C20.5289 5.2719 23.487 2.40604 27.0552 2.40604H47.5712C51.139 2.40604 54 5.2719 54 8.84007ZM51.3223 8.84007C51.3223 6.74835 49.6626 5.08372 47.571 5.08372H27.0552C24.9635 5.08372 23.2066 6.74835 23.2066 8.84007V19.2285V31.7145L25.8984 29.2818C26.0231 29.168 26.1628 29.0639 26.2647 28.9699C27.4939 27.8372 27.8084 27.6562 29.4117 27.6892C29.6304 27.6938 29.8909 27.6954 30.2082 27.6954H47.571C49.6626 27.6954 51.3223 26.0014 51.3223 23.9098V8.84007Z" fill="black"/>
</svg>
