<svg width="29" height="20" viewBox="0 0 29 20" fill="none" xmlns="http://www.w3.org/2000/svg">
<g clip-path="url(#clip0)">
<path d="M15.2902 10.9901L6.69051 19.5895C6.14346 20.1368 5.25652 20.1368 4.70975 19.5895C4.16292 19.0427 4.16292 18.1558 4.70975 17.609L12.3191 9.99986L4.70997 2.39095C4.16314 1.84391 4.16314 0.957105 4.70997 0.410283C5.25679 -0.136761 6.14368 -0.136761 6.69073 0.410283L15.2904 9.00983C15.5638 9.28337 15.7004 9.64151 15.7004 9.99981C15.7004 10.3583 15.5636 10.7167 15.2902 10.9901Z" fill="white"/>
</g>
<g clip-path="url(#clip1)">
<path d="M24.2902 10.9901L15.6905 19.5895C15.1435 20.1368 14.2565 20.1368 13.7097 19.5895C13.1629 19.0427 13.1629 18.1558 13.7097 17.609L21.3191 9.99986L13.71 2.39095C13.1631 1.84391 13.1631 0.957105 13.71 0.410283C14.2568 -0.136761 15.1437 -0.136761 15.6907 0.410283L24.2904 9.00983C24.5638 9.28337 24.7004 9.64151 24.7004 9.99981C24.7004 10.3583 24.5635 10.7167 24.2902 10.9901Z" fill="white"/>
</g>
<defs>
<clipPath id="clip0">
<rect width="20" height="20" fill="white"/>
</clipPath>
<clipPath id="clip1">
<rect width="20" height="20" fill="white" transform="translate(9)"/>
</clipPath>
</defs>
</svg>
