<svg width="109" height="81" viewBox="0 0 109 81" fill="none" xmlns="http://www.w3.org/2000/svg">
<path d="M104.127 59.2431L97.5331 57.359C97.2484 57.2777 97.0496 57.0141 97.0496 56.718V54.5169C97.5861 54.1452 98.0979 53.7292 98.5762 53.2649C100.895 51.0151 102.171 47.9974 102.171 44.7674V41.7301L102.809 40.4551C103.509 39.0553 103.878 37.4882 103.878 35.9235V27.6953C103.878 26.8135 103.164 26.0986 102.282 26.0986H86.9169C81.3298 26.0986 76.7841 30.6442 76.7841 36.2313V36.3265C76.7841 37.6277 77.0917 38.9308 77.6736 40.0944L78.4913 41.7299V44.3378C78.4913 48.4708 80.528 52.1792 83.613 54.4107L83.6134 56.7176C83.6134 57.0733 83.6134 57.2206 82.295 57.5974L79.0774 58.5167L69.7696 55.1322C69.803 54.693 69.6548 54.2463 69.3344 53.9098L66.3601 50.7849V45.5393C66.6746 45.2802 66.9845 45.0141 67.2849 44.7327C71.0371 41.2157 73.189 36.2503 73.189 31.1096V26.9203C74.322 24.4548 74.8962 21.8459 74.8962 19.159V2.08728C74.8962 1.20549 74.1813 0.490601 73.2995 0.490601H49.3985C40.9872 0.490601 34.1442 7.33376 34.1442 15.7449V19.1594C34.1442 21.8463 34.7184 24.4553 35.8514 26.9208V30.5252C35.8514 36.4938 38.5053 41.871 42.6803 45.4161V50.7852L39.706 53.91C39.3856 54.2465 39.2374 54.6932 39.2709 55.1324L29.447 58.7045C28.7351 58.9633 28.0737 59.314 27.4731 59.7387L25.9305 58.9674C30.5226 56.9686 31.9772 54.1573 32.0471 54.0177C32.2719 53.5683 32.2719 53.039 32.0471 52.5896C30.896 50.2874 30.7565 46.0677 30.6445 42.6772C30.6073 41.5485 30.5719 40.4821 30.5045 39.5326C29.9601 31.8741 24.138 26.0986 16.9614 26.0986C9.78488 26.0986 3.96253 31.8739 3.41838 39.5326C3.3509 40.4823 3.31556 41.5487 3.2783 42.6776C3.16632 46.0679 3.02667 50.2872 1.87578 52.5894C1.65097 53.0388 1.65097 53.5681 1.87578 54.0175C1.94561 54.1571 3.39731 56.9626 7.99851 58.9638L3.71366 61.1061C1.42296 62.2523 0 64.5547 0 67.1156V78.9116C0 79.7934 0.714887 80.5083 1.59668 80.5083C2.47847 80.5083 3.19336 79.7934 3.19336 78.9116V67.1156C3.19336 65.7718 3.93997 64.5637 5.14173 63.9627L10.4774 61.2949L12.3334 63.0587C13.6312 64.292 15.296 64.9083 16.9614 64.9083C18.6264 64.9083 20.2921 64.2916 21.5895 63.0587L23.4452 61.2951L25.185 62.165C24.3658 63.4758 23.9008 65.0128 23.9008 66.6229V78.9121C23.9008 79.7938 24.6157 80.5087 25.4975 80.5087C26.3793 80.5087 27.0942 79.7938 27.0942 78.9121V66.6229C27.0942 64.431 28.4782 62.455 30.5383 61.7058L40.8959 57.9396L45.2075 64.4074C45.7587 65.2343 46.642 65.7646 47.6309 65.8625C47.7411 65.8734 47.8508 65.8787 47.9602 65.8787C48.8326 65.8787 49.6682 65.5353 50.2929 64.9109L52.9233 62.2804V78.9123C52.9233 79.7941 53.6382 80.5089 54.52 80.5089C55.4018 80.5089 56.1167 79.7941 56.1167 78.9123V62.2804L58.7472 64.9109C59.3716 65.5355 60.2072 65.8789 61.0798 65.8789C61.189 65.8789 61.2989 65.8736 61.4089 65.8627C62.398 65.7648 63.2813 65.2345 63.8325 64.4076L68.1444 57.94L78.5017 61.7062C80.5616 62.4554 81.9459 64.4314 81.9459 66.6234V78.9125C81.9459 79.7943 82.6608 80.5092 83.5425 80.5092C84.4243 80.5092 85.1392 79.7943 85.1392 78.9125V66.6234C85.1392 64.4033 84.2572 62.3213 82.7776 60.7814L83.1721 60.6688C83.57 60.5551 84.1129 60.3995 84.6579 60.1323L88.7345 64.209V78.9125C88.7345 79.7943 89.4494 80.5092 90.3312 80.5092C91.213 80.5092 91.9279 79.7943 91.9279 78.9125V64.209L95.9762 60.1606C96.1914 60.2701 96.4175 60.3625 96.6555 60.4304L103.25 62.3145C104.755 62.7445 105.807 64.1383 105.807 65.7039V78.9125C105.807 79.7943 106.522 80.5092 107.403 80.5092C108.285 80.5092 109 79.7943 109 78.9125V65.7039C109 62.7196 106.996 60.0629 104.127 59.2431ZM10.2432 56.4229C7.25659 55.3483 5.75848 53.9155 5.11896 53.1331C5.55496 51.9933 5.83767 50.6879 6.02906 49.3098C6.90958 51.4211 8.38427 53.2234 10.2432 54.5093V56.4229ZM19.3901 60.7442C18.0282 62.0381 15.8948 62.0379 14.5334 60.744L13.0485 59.3329C13.2991 58.8635 13.4368 58.3313 13.4368 57.7737V56.0719C14.5506 56.4199 15.7347 56.6077 16.9618 56.6077C18.1875 56.6077 19.3709 56.4191 20.4867 56.0729L20.4865 57.7735C20.4865 58.3313 20.624 58.8637 20.8748 59.3334L19.3901 60.7442ZM16.9623 53.4144C12.1944 53.4144 8.31572 49.5355 8.31572 44.7678C8.31572 43.886 7.60083 43.1711 6.71904 43.1711C6.62963 43.1711 6.54234 43.1803 6.45697 43.1945C6.46166 43.0572 6.46613 42.9197 6.47081 42.7837C6.50636 41.6858 6.54064 40.6488 6.60387 39.7593C6.80782 36.8904 7.95423 34.2467 9.83193 32.315C11.7264 30.3658 14.2586 29.2924 16.9618 29.2924C19.6651 29.2924 22.197 30.3658 24.0918 32.315C25.9695 34.2467 27.1159 36.8904 27.3198 39.7593C27.3828 40.6486 27.4173 41.6854 27.4535 42.783C27.4567 42.8773 27.4599 42.9729 27.4631 43.0679C25.7259 40.3914 23.0431 38.419 19.5766 37.3051C16.3741 36.2762 13.6197 36.3399 13.5034 36.3429C13.0853 36.3546 12.6885 36.5296 12.3983 36.8306L9.51749 39.8183C8.90543 40.4532 8.92374 41.464 9.55858 42.076C10.1934 42.6881 11.2042 42.6696 11.8163 42.0349L14.2134 39.549C16.2778 39.6499 22.9194 40.4223 25.5024 46.1101C24.8524 50.3015 21.2499 53.4144 16.9623 53.4144ZM23.6796 56.4282L23.6798 54.5239C25.5373 53.2451 27.0141 51.4462 27.8953 49.319C28.0867 50.6938 28.3692 51.9963 28.8043 53.1336C28.1684 53.9085 26.6633 55.354 23.6796 56.4282ZM39.0448 30.525V26.5635C39.0448 26.3232 38.9905 26.0858 38.886 25.8693C37.8586 23.7417 37.3376 21.4842 37.3376 19.1594V15.7451C37.3376 9.09457 42.7482 3.68417 49.3985 3.68417H71.7028V19.1596C71.7028 21.4844 71.1819 23.7419 70.1545 25.8695C70.05 26.086 69.9957 26.3234 69.9957 26.5637V31.11C69.9957 35.434 68.2574 39.4447 65.1011 42.4032C64.707 42.7724 64.2981 43.1185 63.8753 43.4411C63.8659 43.4475 63.857 43.4545 63.8478 43.4611C60.891 45.706 57.2693 46.7971 53.4871 46.552C45.3885 46.0277 39.0448 38.9878 39.0448 30.525ZM48.0349 62.6525C48.0239 62.6636 47.9981 62.6898 47.9459 62.6842C47.894 62.6791 47.8736 62.6487 47.8648 62.6355L42.8992 55.1869L44.4971 53.5078L52.0303 58.657L48.0349 62.6525ZM54.5202 56.4908L45.8737 50.5806V47.6001C48.1109 48.8095 50.616 49.5659 53.2803 49.7384C53.7012 49.7656 54.1196 49.779 54.5366 49.779C57.5897 49.779 60.528 49.0492 63.1668 47.664V50.5806L54.5202 56.4908ZM61.1756 62.6359C61.1669 62.6491 61.1464 62.6796 61.0945 62.6847C61.0423 62.6913 61.0168 62.6638 61.0055 62.653L57.0102 58.6576L64.5433 53.5082L66.1415 55.1873L61.1756 62.6359ZM90.3312 61.2888L86.7078 57.6656C86.771 57.3784 86.8068 57.0639 86.8066 56.7171L86.8064 56.0433C87.8119 56.3733 88.8716 56.5692 89.9682 56.602C90.0913 56.6058 90.2132 56.6075 90.3359 56.6075C91.5477 56.6075 92.7305 56.4244 93.8562 56.0751V56.718C93.8562 57.0365 93.8963 57.3486 93.9716 57.6485L90.3312 61.2888ZM96.3524 50.9734C94.6601 52.6156 92.4245 53.4829 90.0642 53.4101C85.4436 53.2715 81.6846 49.2017 81.6846 44.3382V41.3532C81.6846 41.1052 81.627 40.8608 81.516 40.6392L80.5297 38.6666C80.1684 37.9438 79.9775 37.1348 79.9775 36.3267V36.2315C79.9775 32.405 83.0906 29.2921 86.9169 29.2921H100.685V35.9237C100.685 36.9954 100.432 38.0686 99.9526 39.0272L99.1466 40.6392C99.0357 40.861 98.978 41.1052 98.978 41.3532V44.7676C98.978 47.1264 98.0455 49.3303 96.3524 50.9734Z" fill="black"/>
</svg>
