<svg width="50" height="50" viewBox="0 0 50 50" fill="none" xmlns="http://www.w3.org/2000/svg">
<g clip-path="url(#clip0)">
<path d="M5.38085 13.7584C8.35205 13.7584 10.7617 11.3386 10.7617 8.37757C10.7617 5.41657 8.35205 2.98651 5.38085 2.98651C2.40964 2.98651 0 5.40636 0 8.36736C0 11.3284 2.41985 13.7584 5.38085 13.7584ZM5.38085 5.48804C6.97366 5.48804 8.26016 6.78475 8.26016 8.36736C8.26016 9.94996 6.96345 11.2467 5.38085 11.2467C3.79824 11.2467 2.50153 9.94996 2.50153 8.36736C2.50153 6.78475 3.79824 5.48804 5.38085 5.48804Z" fill="black"/>
<path d="M5.38085 30.3808C8.35205 30.3808 10.7617 27.961 10.7617 25C10.7617 22.039 8.35205 19.6191 5.38085 19.6191C2.40964 19.6191 0 22.0288 0 25C0 27.9712 2.41985 30.3808 5.38085 30.3808ZM5.38085 22.1207C6.97366 22.1207 8.26016 23.4174 8.26016 25C8.26016 26.5826 6.96345 27.8793 5.38085 27.8793C3.79824 27.8793 2.50153 26.5928 2.50153 25C2.50153 23.4072 3.79824 22.1207 5.38085 22.1207Z" fill="black"/>
<path d="M5.38085 47.0135C8.35205 47.0135 10.7617 44.5936 10.7617 41.6326C10.7617 38.6614 8.34184 36.2518 5.38085 36.2518C2.41985 36.2518 0 38.6716 0 41.6326C0 44.5936 2.41985 47.0135 5.38085 47.0135ZM5.38085 38.7431C6.97366 38.7431 8.26016 40.0398 8.26016 41.6224C8.26016 43.2152 6.96345 44.5017 5.38085 44.5017C3.79824 44.5017 2.50153 43.205 2.50153 41.6224C2.50153 40.0398 3.79824 38.7431 5.38085 38.7431Z" fill="black"/>
<path d="M17.96 9.62322H48.7441C49.4384 9.62322 50 9.06165 50 8.36735C50 7.67305 49.4384 7.11148 48.7441 7.11148H17.96C17.2657 7.11148 16.7041 7.67305 16.7041 8.36735C16.7041 9.06165 17.2657 9.62322 17.96 9.62322Z" fill="black"/>
<path d="M17.96 26.2559H48.7441C49.4384 26.2559 50 25.6943 50 25C50 24.3057 49.4384 23.7441 48.7441 23.7441H17.96C17.2657 23.7441 16.7041 24.3057 16.7041 25C16.7041 25.6943 17.2657 26.2559 17.96 26.2559Z" fill="black"/>
<path d="M17.96 42.8783H48.7441C49.4384 42.8783 50 42.3167 50 41.6224C50 40.9281 49.4384 40.3665 48.7441 40.3665H17.96C17.2657 40.3665 16.7041 40.9281 16.7041 41.6224C16.7041 42.3167 17.2657 42.8783 17.96 42.8783Z" fill="black"/>
</g>
<defs>
<clipPath id="clip0">
<rect width="50" height="50" fill="white"/>
</clipPath>
</defs>
</svg>
