<svg width="26" height="26" viewBox="0 0 26 26" fill="none" xmlns="http://www.w3.org/2000/svg">
<path d="M25.1367 23.6742L19.1547 17.6922C20.6375 15.8844 21.5312 13.5688 21.5312 11.0449C21.5312 5.25586 16.834 0.558594 11.0449 0.558594C5.25078 0.558594 0.558594 5.25586 0.558594 11.0449C0.558594 16.834 5.25078 21.5312 11.0449 21.5312C13.5688 21.5312 15.8793 20.6426 17.6871 19.1598L23.6691 25.1367C24.0754 25.543 24.7305 25.543 25.1367 25.1367C25.543 24.7355 25.543 24.0754 25.1367 23.6742ZM11.0449 19.4441C6.40859 19.4441 2.64062 15.6762 2.64062 11.0449C2.64062 6.41367 6.40859 2.64062 11.0449 2.64062C15.6762 2.64062 19.4492 6.41367 19.4492 11.0449C19.4492 15.6762 15.6762 19.4441 11.0449 19.4441Z" fill="white"/>
</svg>
