<svg width="50" height="50" viewBox="0 0 50 50" fill="none" xmlns="http://www.w3.org/2000/svg">
<g clip-path="url(#clip0)">
<path d="M48.715 4.57787C48.0025 4.57787 47.4194 5.1609 47.4194 5.87349V40.2612C47.4194 43.8997 44.4611 46.8473 40.8334 46.8473H9.17726C5.53874 46.8473 2.59123 43.8889 2.59123 40.2612V3.16349H40.5203V36.5255C40.5203 37.2381 41.1033 37.8212 41.8159 37.8212C42.5285 37.8212 43.1115 37.2381 43.1115 36.5255V1.86788C43.1115 1.15529 42.5285 0.572266 41.8159 0.572266H1.29561C0.583026 0.572266 0 1.15529 0 1.86788V40.2504C0 45.3141 4.11357 49.4277 9.17726 49.4277H40.8226C45.8863 49.4277 49.9999 45.3141 49.9999 40.2504V5.87349C50.0107 5.1609 49.4276 4.57787 48.715 4.57787Z" fill="black"/>
<path d="M35.5538 10.6349C36.2664 10.6349 36.8494 10.0519 36.8494 9.33931C36.8494 8.62673 36.2664 8.0437 35.5538 8.0437H7.30941C6.59682 8.0437 6.01379 8.62673 6.01379 9.33931C6.01379 10.0519 6.59682 10.6349 7.30941 10.6349H35.5538Z" fill="black"/>
<path d="M35.5538 34.4525H7.30941C6.59682 34.4525 6.01379 35.0355 6.01379 35.7481C6.01379 36.4607 6.59682 37.0437 7.30941 37.0437H35.543C36.2556 37.0437 36.8386 36.4607 36.8386 35.7481C36.8386 35.0355 36.2664 34.4525 35.5538 34.4525Z" fill="black"/>
<path d="M35.5538 41.0925H11.7901C11.0775 41.0925 10.4944 41.6756 10.4944 42.3881C10.4944 43.1007 11.0775 43.6838 11.7901 43.6838H35.5538C36.2663 43.6838 36.8494 43.1007 36.8494 42.3881C36.8494 41.6756 36.2663 41.0925 35.5538 41.0925Z" fill="black"/>
<path d="M5.58191 15.1588V29.173C5.58191 29.8856 6.16494 30.4686 6.87752 30.4686H20.9457C21.6583 30.4686 22.2413 29.8856 22.2413 29.173V15.1588C22.2413 14.4462 21.6583 13.8632 20.9457 13.8632H6.87752C6.16494 13.8632 5.58191 14.4462 5.58191 15.1588ZM8.17314 16.4544H19.6501V27.8774H8.17314V16.4544Z" fill="black"/>
<path d="M36.2447 15.1587H26.9271C26.2145 15.1587 25.6315 15.7417 25.6315 16.4543C25.6315 17.1669 26.2145 17.7499 26.9271 17.7499H36.2447C36.9573 17.7499 37.5404 17.1669 37.5404 16.4543C37.5404 15.7417 36.9681 15.1587 36.2447 15.1587Z" fill="black"/>
<path d="M36.2447 21.0105H26.9271C26.2145 21.0105 25.6315 21.5935 25.6315 22.3061C25.6315 23.0187 26.2145 23.6017 26.9271 23.6017H36.2447C36.9573 23.6017 37.5404 23.0187 37.5404 22.3061C37.5404 21.5935 36.9681 21.0105 36.2447 21.0105Z" fill="black"/>
<path d="M37.5404 28.5251C37.5404 27.8125 36.9573 27.2295 36.2447 27.2295H26.9271C26.2145 27.2295 25.6315 27.8125 25.6315 28.5251C25.6315 29.2377 26.2145 29.8207 26.9271 29.8207H36.2447C36.9681 29.8207 37.5404 29.2377 37.5404 28.5251Z" fill="black"/>
</g>
<defs>
<clipPath id="clip0">
<rect width="50" height="50" fill="white"/>
</clipPath>
</defs>
</svg>
