<svg width="54" height="54" viewBox="0 0 54 54" fill="none" xmlns="http://www.w3.org/2000/svg">
<g clip-path="url(#clip0)">
<path d="M43.0712 13.5973C43.4828 13.1849 43.4828 12.5171 43.0712 12.1059C42.6588 11.6935 41.9914 11.6935 41.5798 12.1059C41.1674 12.5171 41.1674 13.1849 41.5798 13.5973C41.9914 14.0085 42.6588 14.0085 43.0712 13.5973Z" fill="black"/>
<path d="M13.7624 15.7812C14.174 15.37 14.174 14.7022 13.7624 14.2898C13.35 13.8787 12.6826 13.8787 12.271 14.2898C11.8586 14.7022 11.8586 15.37 12.271 15.7812C12.6826 16.1936 13.35 16.1936 13.7624 15.7812Z" fill="black"/>
<path d="M7.55584 21.8544L10.7125 18.6965C11.1245 18.2845 11.1241 17.6171 10.7125 17.2051C10.3005 16.7931 9.63267 16.7935 9.22068 17.2051L6.06403 20.363C5.65246 20.7749 5.65246 21.4428 6.06444 21.8544C6.47602 22.2663 7.14385 22.2663 7.55584 21.8544Z" fill="black"/>
<path d="M46.5504 18.7958C46.9624 19.2077 47.6302 19.2077 48.0422 18.7958C48.4542 18.3842 48.4542 17.7164 48.0422 17.3044L45.9382 15.2003C45.5262 14.7884 44.8584 14.7884 44.4464 15.2003C44.0348 15.6119 44.0348 16.2798 44.4464 16.6917L46.5504 18.7958Z" fill="black"/>
<path d="M53.691 17.6205L41.7603 5.68772C41.3573 5.28438 40.7064 5.2745 40.2915 5.66588C39.365 6.53889 35.0099 10.6402 34.9468 10.7016C34.9431 10.7053 34.939 10.7086 34.9353 10.7123C33.9037 11.7439 32.8881 12.2037 31.6423 12.2037C29.0954 12.2037 27.1442 12.923 25.5239 14.4577C24.1952 13.1995 22.6894 12.549 20.5878 12.3318L15.3152 7.05881C14.9032 6.64683 14.2354 6.64683 13.8234 7.05881L0.308995 20.5736C-0.0922806 20.9745 -0.105464 21.6222 0.285512 22.0395C0.293752 22.0481 0.300755 22.0568 0.308995 22.065C0.308995 22.065 9.10328 30.8457 9.11564 30.8577L8.7432 31.2301C7.30124 32.6721 7.30042 35.0072 8.74361 36.4504C9.42669 37.1327 10.3652 37.538 11.3919 37.5277C11.3807 38.5408 11.7721 39.4789 12.4725 40.1793C13.184 40.8908 14.1349 41.2682 15.1208 41.2579C15.1101 42.2701 15.501 43.2078 16.2014 43.9082C16.8845 44.5904 17.8226 44.9958 18.8497 44.9855C18.8385 45.9986 19.2299 46.9367 19.9303 47.6371C21.3694 49.0762 23.7107 49.0762 25.1502 47.6371L25.5234 47.2638L25.8967 47.6371C27.3358 49.0762 29.6771 49.0762 31.1166 47.6371C31.8153 46.9384 32.2075 46.0019 32.1976 44.9876C33.2049 44.9979 34.1435 44.6102 34.8459 43.9078C35.5751 43.1786 35.9344 42.2174 35.9245 41.2595C36.947 41.2702 37.8814 40.8723 38.5744 40.1793C39.276 39.4781 39.6666 38.5384 39.655 37.5277C40.6351 37.5376 41.5881 37.1652 42.3037 36.45C43.7461 35.0076 43.7461 32.6729 42.3037 31.2301L41.9317 30.8581C49.2852 23.5128 39.983 32.8224 53.691 19.1119C54.103 18.6999 54.103 18.0325 53.691 17.6205ZM2.5465 21.3189L14.5695 9.29632L18.6214 13.3482L6.60086 25.3704L2.5465 21.3189ZM10.2346 34.9586C9.61661 34.3406 9.61661 33.3399 10.2346 32.7215L13.9639 28.9922C14.5811 28.3754 15.5842 28.3759 16.201 28.9922C16.8202 29.6118 16.8202 30.6109 16.201 31.2301L12.4729 34.9582C11.8558 35.5745 10.8513 35.5745 10.2346 34.9586ZM13.9639 38.6879C13.3455 38.0691 13.3447 37.0688 13.9639 36.45L17.6924 32.7215C18.3116 32.1027 19.3111 32.1023 19.9303 32.7215C20.547 33.3382 20.5495 34.3394 19.9303 34.9582C19.9299 34.9586 19.9299 34.9586 19.9299 34.959L16.201 38.6879C15.5842 39.3046 14.5806 39.3046 13.9639 38.6879ZM17.6924 42.416C17.0744 41.7984 17.0744 40.7973 17.6924 40.1793L21.4217 36.45C22.0384 35.8332 23.0416 35.8332 23.6592 36.4508C24.2681 37.0585 24.2862 38.0596 23.6588 38.6875C23.6588 38.6875 23.6588 38.6875 23.6584 38.6879L19.9307 42.4156C19.3136 43.0323 18.3091 43.0323 17.6924 42.416ZM21.4217 46.1457C20.8033 45.5269 20.8025 44.5266 21.4217 43.9078L25.1502 40.1793C25.7686 39.5609 26.7689 39.5601 27.3877 40.1793C28.0102 40.8018 28.0011 41.8034 27.3877 42.4164L23.6588 46.1457C23.0416 46.762 22.0384 46.762 21.4217 46.1457ZM29.6248 46.1457C29.0084 46.7624 28.0048 46.7624 27.3881 46.1457L27.0148 45.7724L28.8795 43.9078C29.0056 43.7817 29.1193 43.647 29.2247 43.5073L29.6244 43.9074C29.6248 43.9074 29.6248 43.9074 29.6252 43.9078L29.6256 43.9082C30.244 44.5266 30.244 45.5265 29.6248 46.1457ZM40.8123 34.9582C40.1951 35.5745 39.1911 35.5745 38.5744 34.9582L33.7269 30.1112C33.3149 29.6992 32.6471 29.6992 32.2351 30.1112C31.8236 30.5227 31.8236 31.1906 32.2351 31.6025L37.083 36.4504C37.7014 37.0684 37.7018 38.0687 37.0826 38.6879C36.4634 39.3071 35.4626 39.3046 34.8459 38.6879L29.9984 33.8392C29.5869 33.4276 28.919 33.4276 28.5071 33.8392C28.0951 34.2512 28.0951 34.919 28.5066 35.331L33.3541 40.1793C33.9708 40.796 33.9708 41.7996 33.3541 42.416C33.0558 42.7147 32.6582 42.8795 32.2351 42.8795C31.2328 42.8795 30.9098 42.0901 29.9593 41.2591C29.9498 40.2877 29.5675 39.3759 28.8799 38.6883C28.1803 37.9879 27.2435 37.597 26.2312 37.6068C26.2415 36.5929 25.8489 35.6561 25.1502 34.9582C24.421 34.229 23.4598 33.8701 22.5019 33.88C22.5229 31.7999 20.8383 30.128 18.7734 30.1495C18.7837 29.1249 18.3833 28.1917 17.6924 27.5008C16.2533 26.0613 13.9116 26.0613 12.4725 27.5008L10.607 29.3663L8.09391 26.8606L20.5071 14.4453C22.0442 14.6208 23.0791 15.0629 24.0279 15.945L21.048 18.9245C19.4046 20.5691 19.4046 23.2454 21.0484 24.8909C22.6935 26.5347 25.3702 26.5351 27.0148 24.8904L29.9984 21.9072C31.9265 23.8358 39.4066 31.3162 40.8119 32.7219C41.4286 33.3382 41.4286 34.3418 40.8123 34.9582ZM40.4399 29.3663L31.4898 20.4159L32.2355 19.6702C32.6475 19.2582 32.6475 18.5903 32.2355 18.1784C31.8236 17.7668 31.1561 17.7668 30.7437 18.1784L25.523 23.3995C24.7011 24.2214 23.3622 24.2214 22.5398 23.3995C21.7179 22.5767 21.7179 21.2382 22.5394 20.4159C23.6213 19.3344 25.7537 17.2024 26.8344 16.1221C28.0852 14.8713 29.5683 14.3131 31.6423 14.3131C33.1341 14.3131 34.422 13.8648 35.6287 12.9156L46.1306 23.6903C39.2657 30.5376 40.6207 29.1858 40.4399 29.3663ZM47.6224 22.1985L37.1852 11.4901L40.9927 7.90298L51.4539 18.3662L47.6224 22.1985Z" fill="black"/>
</g>
<defs>
<clipPath id="clip0">
<rect width="54" height="54" fill="white"/>
</clipPath>
</defs>
</svg>
