<svg width="30" height="30" viewBox="0 0 30 30" fill="none" xmlns="http://www.w3.org/2000/svg">
<path d="M26.7863 20.7589C26.7863 21.0603 26.7305 21.4537 26.6189 21.9392C26.5073 22.4247 26.3901 22.8069 26.2673 23.0859C26.0329 23.644 25.3521 24.2355 24.2249 24.8605C23.1758 25.4297 22.1378 25.7143 21.111 25.7143C20.8097 25.7143 20.5167 25.6948 20.2321 25.6557C19.9475 25.6166 19.6267 25.5469 19.2695 25.4464C18.9124 25.346 18.6473 25.2651 18.4743 25.2037C18.3013 25.1423 17.9916 25.0279 17.5452 24.8605C17.0988 24.6931 16.8253 24.5926 16.7249 24.5592C15.6311 24.1685 14.6546 23.7054 13.7952 23.1696C12.3666 22.288 10.8906 21.0854 9.36719 19.5619C7.84375 18.0385 6.64118 16.5625 5.75949 15.1339C5.22377 14.2746 4.7606 13.298 4.36998 12.2042C4.3365 12.1038 4.23605 11.8304 4.06864 11.3839C3.90123 10.9375 3.78683 10.6278 3.72545 10.4548C3.66406 10.2818 3.58315 10.0167 3.4827 9.6596C3.38225 9.30246 3.3125 8.98159 3.27344 8.69699C3.23437 8.41239 3.21484 8.11942 3.21484 7.81808C3.21484 6.7913 3.49944 5.75335 4.06864 4.70424C4.69364 3.57701 5.28516 2.89621 5.84319 2.66183C6.12221 2.53907 6.50446 2.42188 6.98995 2.31027C7.47545 2.19866 7.86886 2.14286 8.1702 2.14286C8.32645 2.14286 8.44364 2.1596 8.52176 2.19308C8.72266 2.26005 9.01841 2.68416 9.40904 3.46541C9.53181 3.67746 9.69922 3.9788 9.91127 4.36942C10.1233 4.76005 10.3186 5.1144 10.4972 5.43248C10.6758 5.75056 10.8488 6.04911 11.0162 6.32813C11.0497 6.37277 11.1473 6.51228 11.3092 6.74666C11.471 6.98103 11.591 7.17913 11.6691 7.34096C11.7472 7.50279 11.7863 7.66183 11.7863 7.81808C11.7863 8.0413 11.6272 8.32032 11.3092 8.65514C10.9911 8.98996 10.6451 9.29688 10.2712 9.5759C9.89732 9.85491 9.55134 10.1507 9.23326 10.4632C8.91518 10.7757 8.75614 11.0324 8.75614 11.2333C8.75614 11.3337 8.78404 11.4593 8.83984 11.6099C8.89565 11.7606 8.94308 11.875 8.98214 11.9531C9.0212 12.0313 9.09933 12.1652 9.21652 12.3549C9.3337 12.5446 9.39788 12.6507 9.40904 12.673C10.2573 14.202 11.2282 15.5134 12.322 16.6071C13.4157 17.7009 14.7271 18.6719 16.2561 19.5201C16.2785 19.5313 16.3845 19.5954 16.5742 19.7126C16.7639 19.8298 16.8979 19.9079 16.976 19.947C17.0541 19.9861 17.1685 20.0335 17.3192 20.0893C17.4699 20.1451 17.5954 20.173 17.6959 20.173C17.8968 20.173 18.1535 20.014 18.466 19.6959C18.7785 19.3778 19.0742 19.0318 19.3532 18.6579C19.6323 18.284 19.9392 17.9381 20.274 17.62C20.6088 17.3019 20.8878 17.1429 21.111 17.1429C21.2673 17.1429 21.4263 17.1819 21.5882 17.26C21.75 17.3382 21.9481 17.4582 22.1825 17.62C22.4168 17.7818 22.5564 17.8795 22.601 17.913C22.88 18.0804 23.1786 18.2534 23.4966 18.4319C23.8147 18.6105 24.1691 18.8058 24.5597 19.0179C24.9503 19.2299 25.2517 19.3973 25.4637 19.5201C26.245 19.9107 26.6691 20.2065 26.736 20.4074C26.7695 20.4855 26.7863 20.6027 26.7863 20.7589Z" fill="black"/>
</svg>
