<svg width="30" height="30" viewBox="0 0 30 30" fill="none" xmlns="http://www.w3.org/2000/svg">
<path d="M18.2529 29.0625C17.9044 29.0658 17.5619 28.9719 17.2639 28.7914C16.9658 28.6109 16.7239 28.3509 16.5654 28.0406L12.8154 20.9437C12.7066 20.7244 12.688 20.4712 12.7634 20.2383C12.8389 20.0054 13.0025 19.8112 13.2192 19.6974C13.436 19.5835 13.6886 19.5589 13.9233 19.6289C14.1579 19.6989 14.3558 19.8579 14.4747 20.0719L18.2247 27.1687L27.1872 2.86875L2.81224 11.7094L11.9997 16.6406L19.7997 8.84062C19.9763 8.66409 20.2157 8.56491 20.4654 8.56491C20.715 8.56491 20.9545 8.66409 21.131 8.84062C21.3075 9.01716 21.4067 9.25659 21.4067 9.50625C21.4067 9.75591 21.3075 9.99534 21.131 10.1719L12.8341 18.4594C12.6931 18.6006 12.5106 18.6931 12.3133 18.7235C12.116 18.7538 11.9142 18.7204 11.7372 18.6281L1.95911 13.4344C1.61685 13.2742 1.33098 13.0143 1.13897 12.6889C0.946968 12.3634 0.857788 11.9875 0.883127 11.6104C0.908466 11.2334 1.04714 10.8728 1.28097 10.576C1.5148 10.2791 1.83287 10.0598 2.19349 9.94687L26.4841 1.05937C26.8277 0.914474 27.2067 0.87531 27.5726 0.946885C27.9386 1.01846 28.2749 1.19752 28.5385 1.46119C28.8022 1.72486 28.9813 2.06116 29.0528 2.42711C29.1244 2.79306 29.0853 3.17204 28.9404 3.51562L20.0529 27.8062C19.9307 28.1575 19.7068 28.4646 19.4096 28.6883C19.1125 28.912 18.7555 29.0422 18.3841 29.0625H18.2529Z" fill="white"/>
</svg>
