<svg width="90" height="90" viewBox="0 0 90 90" fill="none" xmlns="http://www.w3.org/2000/svg">
<g clip-path="url(#clip0)">
<path d="M38.9783 82.6152C38.9783 83.4427 38.3071 84.1139 37.479 84.1139C36.6508 84.1139 35.9796 83.4427 35.9796 82.6152C35.9796 81.787 36.6508 81.1158 37.479 81.1158C38.3071 81.1158 38.9783 81.787 38.9783 82.6152Z" fill="black"/>
<path d="M87.9805 52.7228L66.7244 45.3823C64.3766 44.5723 61.8161 45.8184 61.006 48.1661L60.5972 49.3494C60.376 48.7041 60.1123 48.0741 59.8081 47.4636C58.2522 43.8272 57.7276 39.8328 58.2927 35.9187C60.173 35.3424 61.4589 33.6094 61.4658 31.6432C61.4623 29.7413 60.2602 28.048 58.465 27.4187C58.4671 26.9498 58.4671 26.5096 58.4671 26.3965C58.2404 11.7086 46.1709 -0.0260271 31.4822 0.160956C16.7943 -0.0260271 4.72409 11.7086 4.49734 26.3965C4.49734 26.5096 4.49734 26.9484 4.49943 27.4166C3.8729 27.6301 3.30357 27.9852 2.83751 28.4555C1.97585 29.2913 1.49235 30.4425 1.49933 31.6432C1.5063 33.6094 2.79216 35.3424 4.67246 35.9187C5.2369 39.8328 4.71223 43.8272 3.15636 47.4636C0.348123 52.6831 1.09815 59.1012 5.03456 63.533C1.78748 67.1164 -0.00770359 71.7819 -2.88992e-05 76.6183V85.6131C0.0027619 88.0962 2.01493 90.1076 4.49734 90.1104H58.4671C60.9502 90.1076 62.9617 88.0962 62.9645 85.6131V85.3207L73.8409 89.0764L76.6743 90.0546C77.4564 90.3239 78.309 89.9081 78.5783 89.126C78.8483 88.3439 78.4339 87.4913 77.6524 87.2206L76.2354 86.7315L77.2143 83.8981L78.6313 84.3872C78.789 84.4416 78.9537 84.4702 79.1204 84.4702C79.1406 84.4702 79.1602 84.4619 79.1804 84.4612C79.2292 84.4556 79.2774 84.4479 79.3255 84.4381C79.8795 84.3607 80.3456 83.9846 80.5374 83.4593L89.8357 56.5371C90.0952 55.785 90.0457 54.961 89.6982 54.2459C89.3501 53.5301 88.7326 52.9824 87.9805 52.7228ZM58.3674 55.8067L56.8589 60.1756L56.8526 60.1931L56.2484 61.9429C54.2398 60.1896 51.8906 58.8709 49.3475 58.07C49.1996 57.6918 48.9045 57.3911 48.5298 57.2362L42.164 54.6896C40.8467 54.1678 39.3446 54.6345 38.5548 55.8108L37.479 57.4246V51.9288C45.6553 50.1797 52.2416 44.1369 54.687 36.1406H55.2465C54.7107 40.4552 55.3617 44.8346 57.1275 48.8073C58.2222 50.9674 58.6534 53.4024 58.3674 55.8067ZM31.4822 66.4194L28.4842 61.922V52.4444C29.4791 52.563 30.4803 52.6258 31.4822 52.6314C32.4848 52.6258 33.4853 52.563 34.4809 52.4444V61.922L31.4822 66.4194ZM47.8272 27.2031C47.1874 23.8918 44.4092 21.4199 41.0463 21.1694C37.6834 20.9196 34.5695 22.9527 33.4463 26.1328C32.2169 25.4846 30.7476 25.4846 29.5189 26.1328C28.3956 22.9527 25.2818 20.9196 21.9189 21.1694C18.556 21.4199 15.7777 23.8918 15.1379 27.2031C13.6428 27.3022 12.1616 27.5422 10.7117 27.921C10.7417 27.7208 10.762 27.5198 10.7948 27.3217C10.8924 26.8326 11.0187 26.3575 11.1443 25.8823C11.1562 25.8398 11.1659 25.7965 11.1736 25.7533L11.796 22.3603C20.199 20.0726 24.0594 16.0357 25.7395 13.4563C28.5519 16.5897 35.471 22.0841 48.8005 21.2036C50.0522 22.6911 51.089 24.346 51.8808 26.1209C51.9925 26.5256 52.0888 26.9296 52.169 27.3168C52.2025 27.5177 52.2353 27.7201 52.266 27.9252C50.8127 27.5443 49.3266 27.3022 47.8272 27.2031ZM44.975 28.6452C44.975 31.129 42.9615 33.1426 40.4777 33.1426C37.9932 33.1426 35.9796 31.129 35.9796 28.6452C35.9796 26.1614 37.9932 24.1472 40.4777 24.1472C42.9601 24.1499 44.9722 26.1621 44.975 28.6452ZM22.4875 24.1472C24.9713 24.1472 26.9849 26.1614 26.9849 28.6452C26.9849 31.129 24.9713 33.1426 22.4875 33.1426C20.0037 33.1426 17.9901 31.129 17.9901 28.6452C17.9929 26.1621 20.0044 24.1499 22.4875 24.1472ZM10.6057 32.5495C10.552 32.0451 10.5255 31.5791 10.5101 31.1262C12.0136 30.619 13.5779 30.3106 15.1617 30.2088C15.9201 33.8194 19.2006 36.3353 22.8845 36.1315C26.5683 35.9285 29.5517 33.0665 29.9082 29.3946C30.352 29.0017 30.8976 28.7422 31.4822 28.6452C32.0669 28.7415 32.6125 29.0011 33.0562 29.3932C33.4135 33.0651 36.3968 35.9264 40.0793 36.1294C43.7624 36.3332 47.043 33.8187 47.8028 30.2088C49.381 30.3099 50.9397 30.6169 52.4397 31.1207C52.4244 31.5791 52.4132 32.0333 52.3602 32.5349C52.2911 33.1328 52.1934 33.7294 52.0699 34.3064C50.1129 42.1241 43.6675 48.0106 35.7054 49.2532C32.9118 49.7576 30.0513 49.7576 27.2577 49.2539C19.2718 48.0175 12.8146 42.0962 10.8938 34.2464C10.7696 33.6791 10.6727 33.1126 10.6057 32.5495ZM29.6277 69.042L25.6809 73.9754L17.1627 59.3747L21.9147 57.4742L29.6277 69.042ZM41.0498 57.4742L45.8018 59.3747L37.2843 73.9754L33.3374 69.042L41.0498 57.4742ZM56.9678 33.1426H55.2947C55.3065 33.0484 55.3289 32.9598 55.34 32.8656C55.4231 32.1065 55.4663 31.3432 55.4691 30.5785C55.4691 30.4662 55.4621 30.3692 55.4607 30.2611C55.4628 30.2339 55.4579 30.2081 55.4586 30.1809L55.4579 30.1439H56.9678C57.3724 30.1432 57.759 30.3092 58.0366 30.603C58.3157 30.8772 58.4706 31.2525 58.4671 31.6432C58.4664 32.4707 57.7959 33.1419 56.9678 33.1426ZM31.4822 3.15897C44.5159 2.97059 55.2438 13.3635 55.4691 26.3965V27.1459H55.1761C55.1524 27.0035 55.1328 26.8717 55.1077 26.7189C55.0107 26.2542 54.8998 25.7881 54.7575 25.2753C53.72 22.8829 52.3253 20.6621 50.6215 18.6877C50.3096 18.3123 49.8338 18.1142 49.3475 18.156C32.6034 19.5423 27.0149 10.2992 26.7874 9.9113C26.4895 9.39291 25.9118 9.10197 25.3181 9.17174C24.7229 9.24081 24.2248 9.65525 24.0489 10.2274C23.9652 10.4939 21.8965 16.7941 10.1347 19.6937C9.56193 19.8354 9.12587 20.2986 9.01912 20.8784L8.23421 25.1546C8.09676 25.6744 7.96071 26.1984 7.83792 26.8256C7.81978 26.9331 7.80443 27.0384 7.78699 27.1459H7.49605C7.49605 26.7907 7.49605 26.4851 7.49605 26.3965C7.72071 13.3635 18.4492 2.97059 31.4822 3.15897ZM4.95573 30.5758C5.22992 30.2967 5.60528 30.1404 5.99669 30.1439H7.50721L7.50651 30.1788C7.50651 30.2067 7.50163 30.2332 7.50372 30.2611C7.50233 30.3692 7.49605 30.4676 7.49605 30.5785C7.49814 31.3488 7.54209 32.1184 7.62582 32.8837C7.63628 32.9717 7.65861 33.0554 7.66977 33.1426H5.99669C5.16922 33.1419 4.49803 32.4707 4.49734 31.6432C4.49664 31.2393 4.66199 30.8534 4.95573 30.5758ZM5.83831 48.8045C7.60419 44.8325 8.25375 40.4545 7.71861 36.1406H8.28724C10.718 44.1425 17.3064 50.1902 25.4855 51.9295V57.4239L24.4097 55.8094C23.6199 54.6352 22.1184 54.1685 20.8026 54.6889L14.4354 57.2362C14.0753 57.3869 13.7893 57.6737 13.6393 58.0337C11.3076 58.7635 9.13494 59.9259 7.23371 61.4601C4.15198 57.9556 3.59382 52.8965 5.83831 48.8045ZM2.99798 85.6131V76.6183C2.98333 69.4013 7.67745 63.0188 14.5707 60.8831L24.1899 77.3739C24.4397 77.8009 24.8827 78.0772 25.376 78.1135C25.4123 78.1163 25.4492 78.117 25.4855 78.117C25.9411 78.117 26.3723 77.9098 26.6569 77.5546L29.9829 73.3963V87.1124H4.49734C3.66987 87.1117 2.99938 86.4405 2.99798 85.6131ZM59.9665 85.6131C59.9658 86.4405 59.2946 87.1117 58.4671 87.1124H32.9816V73.3963L36.3075 77.5546C36.5929 77.9098 37.0234 78.117 37.479 78.117C37.5152 78.117 37.5522 78.1156 37.5885 78.1128C38.0818 78.0765 38.5255 77.8002 38.7746 77.3732L48.3826 60.9026C50.7582 61.6324 52.9365 62.8925 54.7533 64.5872C54.9005 64.7239 55.0386 64.8795 55.1844 65.0247L51.2187 76.5081C50.8294 77.6356 50.9034 78.8712 51.4252 79.9436C51.9478 81.0166 52.8744 81.8371 54.0019 82.2264L59.9665 84.286V85.6131ZM73.4021 85.7533L54.98 79.3917C54.2112 79.1112 53.8086 78.2663 54.0765 77.4932C54.3437 76.7195 55.1817 76.3037 55.9596 76.5583L74.3809 82.9192L73.4021 85.7533ZM78.1939 81.0641L56.9378 73.7236C56.4536 73.561 55.9442 73.4822 55.4335 73.4912L59.6595 61.2543C59.6679 61.2313 59.6741 61.2089 59.6825 61.1866L63.8408 49.1443C64.1115 48.3615 64.9648 47.9464 65.7469 48.2171L87.0016 55.5576L78.1939 81.0641Z" fill="black"/>
<path d="M59.8228 69.9616C59.6484 70.4681 59.7565 71.0291 60.1074 71.4337C60.4591 71.8384 60.9991 72.0247 61.5252 71.9228C62.0505 71.8216 62.4824 71.447 62.6575 70.9405L68.5294 53.9369C68.7045 53.4303 68.5957 52.8694 68.2447 52.4647C67.8938 52.0601 67.3538 51.8738 66.8277 51.9756C66.3016 52.0768 65.8698 52.4515 65.6953 52.958L59.8228 69.9616Z" fill="black"/>
<path d="M71.3125 59.6552L79.8139 62.5912C80.5967 62.8612 81.4507 62.446 81.7207 61.6632C81.9907 60.8804 81.5749 60.0271 80.7921 59.7571L72.2906 56.8212C71.7841 56.646 71.2232 56.7549 70.8185 57.1058C70.4145 57.4575 70.2276 57.9975 70.3301 58.5236C70.432 59.0489 70.8066 59.4808 71.3125 59.6552Z" fill="black"/>
<path d="M69.3554 65.3238L77.8569 68.2597C78.3642 68.4383 78.9279 68.3309 79.3347 67.9792C79.7414 67.6276 79.9284 67.0855 79.8251 66.5573C79.7219 66.0299 79.3437 65.598 78.8344 65.4256L70.3329 62.4897C69.8257 62.3111 69.262 62.4179 68.8552 62.7695C68.4484 63.1211 68.2614 63.664 68.3647 64.1914C68.468 64.7196 68.8461 65.1515 69.3554 65.3238Z" fill="black"/>
<path d="M76.8766 71.0931L68.3752 68.1572C67.8693 67.9828 67.3077 68.0917 66.9037 68.4426C66.499 68.7935 66.3128 69.3336 66.4146 69.8596C66.5165 70.3857 66.8912 70.8169 67.397 70.992L75.8991 73.9279C76.6813 74.1979 77.5353 73.7828 77.8053 72.9999C78.0753 72.2171 77.6594 71.3638 76.8766 71.0931Z" fill="black"/>
</g>
<defs>
<clipPath id="clip0">
<rect width="90" height="90" fill="white"/>
</clipPath>
</defs>
</svg>
