<svg width="84" height="84" viewBox="0 0 84 84" fill="none" xmlns="http://www.w3.org/2000/svg">
<g clip-path="url(#clip0)">
<path d="M36.3794 77.1075C36.3794 77.8798 35.753 78.5063 34.9801 78.5063C34.2072 78.5063 33.5808 77.8798 33.5808 77.1075C33.5808 76.3346 34.2072 75.7081 34.9801 75.7081C35.753 75.7081 36.3794 76.3346 36.3794 77.1075Z" fill="white"/>
<path d="M82.1152 49.2083L62.2761 42.3571C60.0849 41.6011 57.6951 42.7641 56.939 44.9554L56.5574 46.0598C56.351 45.4574 56.1049 44.8694 55.8209 44.2996C54.3688 40.9056 53.8791 37.1776 54.4066 33.5244C56.1615 32.9865 57.3616 31.3689 57.3682 29.5339C57.3649 27.7587 56.2429 26.1783 54.5674 25.5909C54.5694 25.1533 54.5694 24.7424 54.5694 24.6369C54.3577 10.9281 43.0929 -0.0242685 29.3835 0.15025C15.6747 -0.0242685 4.4092 10.9281 4.19756 24.6369C4.19756 24.7424 4.19756 25.152 4.19952 25.589C3.61475 25.7882 3.08339 26.1197 2.64839 26.5586C1.84418 27.3387 1.39291 28.4132 1.39942 29.5339C1.40593 31.3689 2.60607 32.9865 4.36101 33.5244C4.88782 37.1776 4.39813 40.9056 2.94599 44.2996C0.324964 49.1712 1.02499 55.1615 4.69898 59.2978C1.66836 62.6423 -0.00714018 66.9968 2.28728e-05 71.5109V79.906C0.00262761 82.2236 1.88065 84.101 4.19756 84.1036H54.5694C56.8869 84.101 58.7643 82.2236 58.7669 79.906V79.6332L68.9182 83.1385L71.5627 84.0515C72.2927 84.3029 73.0884 83.9147 73.3398 83.1848C73.5918 82.4548 73.205 81.659 72.4757 81.4064L71.1531 80.9499L72.0667 78.3054L73.3893 78.7619C73.5364 78.8127 73.6901 78.8394 73.8458 78.8394C73.8646 78.8394 73.8829 78.8316 73.9018 78.8309C73.9473 78.8257 73.9923 78.8185 74.0372 78.8094C74.5542 78.7371 74.9892 78.3861 75.1683 77.8958L83.8467 52.7683C84.0889 52.0664 84.0427 51.2973 83.7184 50.6298C83.3934 49.9617 82.8171 49.4505 82.1152 49.2083ZM54.4762 52.0865L53.0684 56.1643L53.0625 56.1806L52.4986 57.8138C50.6238 56.1773 48.4313 54.9466 46.0577 54.199C45.9197 53.8461 45.6442 53.5654 45.2945 53.4208L39.3531 51.044C38.1237 50.5569 36.7217 50.9925 35.9845 52.0905L34.9804 53.5967V48.4672C42.6116 46.8347 48.7588 41.1947 51.0412 33.7315H51.5635C51.0634 37.7584 51.6709 41.8459 53.3191 45.5538C54.3408 47.5699 54.7432 49.8425 54.4762 52.0865ZM29.3835 61.9918L26.5853 57.7942V48.9485C27.5139 49.0592 28.4484 49.1178 29.3835 49.123C30.3192 49.1178 31.253 49.0592 32.1823 48.9485V57.7942L29.3835 61.9918ZM44.6388 25.3897C44.0416 22.2992 41.4486 19.992 38.3099 19.7582C35.1712 19.5251 32.265 21.4227 31.2166 24.3908C30.0692 23.7858 28.6978 23.7858 27.551 24.3908C26.5026 21.4227 23.5964 19.5251 20.4577 19.7582C17.319 19.992 14.7259 22.2992 14.1288 25.3897C12.7333 25.4822 11.3508 25.7062 9.99767 26.0598C10.0257 25.8729 10.0446 25.6854 10.0752 25.5004C10.1663 25.0439 10.2842 24.6005 10.4014 24.157C10.4125 24.1173 10.4216 24.0769 10.4288 24.0365L11.0096 20.8698C18.8525 18.7346 22.4555 14.9668 24.0236 12.5593C26.6485 15.4838 33.1063 20.6119 45.5472 19.7901C46.7154 21.1785 47.6831 22.7231 48.4222 24.3797C48.5264 24.7574 48.6162 25.1345 48.6911 25.4959C48.7224 25.6834 48.753 25.8722 48.7816 26.0637C47.4252 25.7081 46.0382 25.4822 44.6388 25.3897ZM41.9767 26.7357C41.9767 29.054 40.0974 30.9333 37.7792 30.9333C35.4603 30.9333 33.581 29.054 33.581 26.7357C33.581 24.4175 35.4603 22.5375 37.7792 22.5375C40.0961 22.5401 41.9741 24.4181 41.9767 26.7357ZM20.9884 22.5375C23.3066 22.5375 25.1859 24.4175 25.1859 26.7357C25.1859 29.054 23.3066 30.9333 20.9884 30.9333C18.6702 30.9333 16.7908 29.054 16.7908 26.7357C16.7934 24.4181 18.6708 22.5401 20.9884 22.5375ZM9.89869 30.3798C9.84855 29.909 9.82381 29.474 9.80948 29.0514C11.2128 28.5779 12.6727 28.2901 14.1509 28.195C14.8588 31.565 17.9206 33.9131 21.3589 33.723C24.7972 33.5335 27.5816 30.8623 27.9144 27.4351C28.3285 27.0685 28.8378 26.8262 29.3835 26.7357C29.9292 26.8256 30.4384 27.0678 30.8525 27.4338C31.1859 30.861 33.9704 33.5315 37.4074 33.721C40.845 33.9112 43.9069 31.5643 44.616 28.195C46.089 28.2895 47.5437 28.576 48.9438 29.0461C48.9294 29.474 48.919 29.8979 48.8695 30.3661C48.8051 30.9242 48.7139 31.4809 48.5986 32.0195C46.7721 39.3161 40.7564 44.8102 33.3251 45.9699C30.7177 46.4407 28.0479 46.4407 25.4405 45.9706C17.9871 44.8167 11.9603 39.29 10.1676 31.9635C10.0517 31.4341 9.96121 30.9053 9.89869 30.3798ZM27.6526 64.4396L23.9689 69.0442L16.0185 55.4167L20.4538 53.6429L27.6526 64.4396ZM38.3132 53.6429L42.7484 55.4167L34.7987 69.0442L31.115 64.4396L38.3132 53.6429ZM53.17 30.9333H51.6084C51.6195 30.8454 51.6403 30.7627 51.6507 30.6748C51.7282 29.9663 51.7686 29.2539 51.7712 28.5402C51.7712 28.4353 51.7647 28.3448 51.7634 28.2439C51.7654 28.2185 51.7608 28.1944 51.7615 28.169L51.7608 28.1345H53.17C53.5477 28.1338 53.9084 28.2888 54.1676 28.563C54.4281 28.8189 54.5726 29.1692 54.5694 29.5339C54.5687 30.3062 53.9429 30.9326 53.17 30.9333ZM29.3835 2.94841C41.5483 2.77259 51.5609 12.4727 51.7712 24.6369V25.3363H51.4977C51.4756 25.2035 51.4573 25.0804 51.4339 24.9378C51.3434 24.5041 51.2398 24.0691 51.107 23.5905C50.1387 21.3575 48.837 19.2848 47.2468 17.4419C46.9557 17.0916 46.5116 16.9067 46.0577 16.9457C30.4299 18.2397 25.2139 9.61269 25.0016 9.25063C24.7236 8.76679 24.1844 8.49525 23.6302 8.56037C23.0748 8.62484 22.6098 9.01164 22.4457 9.54562C22.3676 9.79437 20.4368 15.6746 9.45914 18.381C8.92452 18.5132 8.51753 18.9455 8.4179 19.4867L7.68531 23.4778C7.55703 23.963 7.43005 24.452 7.31544 25.0374C7.29851 25.1377 7.28418 25.236 7.2679 25.3363H6.99636C6.99636 25.0049 6.99636 24.7196 6.99636 24.6369C7.20604 12.4727 17.2193 2.77259 29.3835 2.94841ZM4.62539 28.5376C4.88131 28.2771 5.23165 28.1312 5.59696 28.1345H7.00678L7.00613 28.167C7.00613 28.1931 7.00157 28.2178 7.00352 28.2439C7.00222 28.3448 6.99636 28.4366 6.99636 28.5402C6.99831 29.2591 7.03934 29.9774 7.11748 30.6917C7.12725 30.7738 7.14809 30.8519 7.1585 30.9333H5.59696C4.82466 30.9326 4.19822 30.3062 4.19756 29.5339C4.19691 29.1569 4.35124 28.7967 4.62539 28.5376ZM5.44914 45.5512C7.09729 41.844 7.70355 37.7578 7.20409 33.7315H7.7348C10.0035 41.2 16.1527 46.8445 23.7865 48.4679V53.596L22.7824 52.0891C22.0453 50.9932 20.6439 50.5576 19.4158 51.0433L13.4731 53.4208C13.137 53.5615 12.8701 53.8291 12.73 54.1651C10.5538 54.8463 8.52599 55.9312 6.75151 57.3631C3.87523 54.0922 3.35428 49.3704 5.44914 45.5512ZM2.79817 79.906V71.5109C2.78449 64.775 7.16567 58.8179 13.5994 56.8246L22.5773 72.2161C22.8104 72.6147 23.2239 72.8725 23.6843 72.9064C23.7182 72.909 23.7527 72.9096 23.7865 72.9096C24.2118 72.9096 24.6142 72.7162 24.8799 72.3848L27.9841 68.5037V81.3054H4.19756C3.42526 81.3048 2.79947 80.6783 2.79817 79.906ZM55.9688 79.906C55.9681 80.6783 55.3417 81.3048 54.5694 81.3054H30.7829V68.5037L33.8871 72.3848C34.1534 72.7162 34.5552 72.9096 34.9804 72.9096C35.0143 72.9096 35.0488 72.9083 35.0826 72.9057C35.543 72.8719 35.9572 72.614 36.1897 72.2155L45.1571 56.8428C47.3744 57.524 49.4074 58.7 51.1031 60.2818C51.2405 60.4094 51.3694 60.5546 51.5055 60.6901L47.8042 71.408C47.4408 72.4603 47.5099 73.6136 47.9969 74.6145C48.4847 75.616 49.3495 76.3818 50.4018 76.7451L55.9688 78.6675V79.906ZM68.5086 80.0369L51.3147 74.0994C50.5971 73.8376 50.2214 73.049 50.4715 72.3275C50.7209 71.6053 51.5029 71.2172 52.229 71.4549L69.4222 77.3918L68.5086 80.0369ZM72.981 75.6603L53.142 68.8091C52.69 68.6574 52.2147 68.5838 51.738 68.5923L55.6822 57.171C55.6901 57.1495 55.6959 57.1287 55.7037 57.1079L59.5848 45.8683C59.8375 45.1377 60.6339 44.7502 61.3638 45.0029L81.2015 51.8541L72.981 75.6603Z" fill="white"/>
<path d="M55.8346 65.2975C55.6718 65.7703 55.7727 66.2938 56.1002 66.6715C56.4284 67.0492 56.9325 67.2231 57.4235 67.128C57.9138 67.0336 58.3169 66.6839 58.4803 66.2111L63.9607 50.3411C64.1242 49.8683 64.0226 49.3448 63.695 48.9671C63.3675 48.5894 62.8635 48.4156 62.3725 48.5106C61.8815 48.605 61.4784 48.9547 61.3156 49.4275L55.8346 65.2975Z" fill="white"/>
<path d="M66.5582 55.6782L74.4928 58.4184C75.2235 58.6704 76.0205 58.283 76.2725 57.5523C76.5245 56.8217 76.1364 56.0253 75.4058 55.7733L67.4711 53.0331C66.9984 52.8696 66.4748 52.9712 66.0971 53.2988C65.7201 53.627 65.5456 54.131 65.6413 54.622C65.7364 55.1123 66.0861 55.5154 66.5582 55.6782Z" fill="white"/>
<path d="M64.7323 60.9688L72.6673 63.709C73.1408 63.8757 73.667 63.7754 74.0466 63.4472C74.4263 63.119 74.6008 62.6131 74.5044 62.1201C74.408 61.6278 74.0551 61.2247 73.5797 61.0639L65.6447 58.3237C65.1712 58.157 64.6451 58.2566 64.2654 58.5848C63.8857 58.913 63.7112 59.4197 63.8076 59.912C63.904 60.4049 64.2569 60.808 64.7323 60.9688Z" fill="white"/>
<path d="M71.7515 66.3536L63.8168 63.6135C63.3447 63.4507 62.8205 63.5522 62.4435 63.8798C62.0658 64.2073 61.8919 64.7113 61.987 65.2023C62.0821 65.6933 62.4318 66.0958 62.9039 66.2592L70.8392 68.9994C71.5692 69.2514 72.3663 68.8639 72.6183 68.1333C72.8703 67.4027 72.4822 66.6063 71.7515 66.3536Z" fill="white"/>
</g>
<defs>
<clipPath id="clip0">
<rect width="84" height="84" fill="white"/>
</clipPath>
</defs>
</svg>
