<svg width="100" height="100" viewBox="0 0 100 100" fill="none" xmlns="http://www.w3.org/2000/svg">
<path d="M88.2266 46.3399C84.8239 44.6387 78.444 44.619 78.1741 44.619C77.3651 44.619 76.7092 45.2748 76.7092 46.0838C76.7092 46.8928 77.3651 47.5486 78.1741 47.5486C79.8204 47.5488 84.6002 47.8024 86.9165 48.9604C87.1268 49.0656 87.3502 49.1152 87.5704 49.1152C88.1077 49.1152 88.6251 48.8184 88.8817 48.3053C89.2436 47.5816 88.9502 46.7018 88.2266 46.3399Z" fill="white"/>
<path d="M95.5297 67.1955L89.4799 65.467C89.2188 65.3924 89.0363 65.1506 89.0363 64.8789V62.8596C89.5285 62.5185 89.998 62.1369 90.4369 61.7109C92.5639 59.6469 93.7352 56.8783 93.7352 53.915V51.1285L94.3201 49.9588C94.9621 48.6746 95.3014 47.2369 95.3014 45.8014V38.2525C95.3014 37.4435 94.6455 36.7877 93.8365 36.7877H79.7402C74.6144 36.7877 70.4441 40.958 70.4441 46.0838V46.1711C70.4441 47.3648 70.7264 48.5603 71.2602 49.6279L72.0104 51.1283V53.5209C72.0104 57.3127 73.8789 60.7148 76.7092 62.7621L76.7096 64.8785C76.7096 65.2049 76.7096 65.34 75.5 65.6857L72.548 66.5291L64.0088 63.424C64.0395 63.0211 63.9035 62.6113 63.6096 62.3025L60.8809 59.4357V54.6232C61.1693 54.3855 61.4537 54.1414 61.7293 53.8832C65.1717 50.6566 67.1459 46.1012 67.1459 41.385V37.5416C68.1853 35.2797 68.7121 32.8861 68.7121 30.4211V14.759C68.7121 13.95 68.0563 13.2941 67.2473 13.2941H45.3197C37.6029 13.2941 31.325 19.5723 31.325 27.2889V30.4215C31.325 32.8865 31.8518 35.2801 32.8912 37.542V40.8488C32.8912 46.3246 35.326 51.2578 39.1562 54.5101V59.4359L36.4275 62.3027C36.1336 62.6115 35.9977 63.0213 36.0283 63.4242L27.0156 66.7014C26.3625 66.9389 25.7557 67.2605 25.2047 67.6502L23.7895 66.9426C28.0023 65.1088 29.3369 62.5297 29.401 62.4016C29.6072 61.9892 29.6072 61.5037 29.401 61.0914C28.3449 58.9793 28.217 55.108 28.1143 51.9974C28.0801 50.9619 28.0477 49.9836 27.9857 49.1125C27.4863 42.0863 22.1449 36.7877 15.5609 36.7877C8.97695 36.7877 3.63535 42.0861 3.13613 49.1125C3.07422 49.9838 3.0418 50.9621 3.00762 51.9978C2.90488 55.1082 2.77676 58.9791 1.7209 61.0912C1.51465 61.5035 1.51465 61.989 1.7209 62.4014C1.78496 62.5295 3.1168 65.1033 7.33809 66.9392L3.40703 68.9047C1.30547 69.9562 0 72.0685 0 74.418V85.24C0 86.049 0.655859 86.7049 1.46484 86.7049C2.27383 86.7049 2.92969 86.049 2.92969 85.24V74.418C2.92969 73.1851 3.61465 72.0767 4.71719 71.5254L9.6123 69.0779L11.315 70.6961C12.5057 71.8275 14.033 72.393 15.5609 72.393C17.0885 72.393 18.6166 71.8271 19.8068 70.6961L21.5094 69.0781L23.1055 69.8762C22.3539 71.0787 21.9273 72.4889 21.9273 73.966V85.2404C21.9273 86.0494 22.5832 86.7053 23.3922 86.7053C24.2012 86.7053 24.857 86.0494 24.857 85.2404V73.966C24.857 71.9551 26.1268 70.1422 28.0168 69.4549L37.5191 65.9996L41.4748 71.9334C41.9805 72.692 42.7908 73.1785 43.698 73.2683C43.7992 73.2783 43.8998 73.2832 44.0002 73.2832C44.8006 73.2832 45.5672 72.9682 46.1402 72.3953L48.5535 69.982V85.2406C48.5535 86.0496 49.2094 86.7055 50.0184 86.7055C50.8273 86.7055 51.4832 86.0496 51.4832 85.2406V69.982L53.8965 72.3953C54.4693 72.9683 55.2359 73.2834 56.0365 73.2834C56.1367 73.2834 56.2375 73.2785 56.3385 73.2685C57.2459 73.1787 58.0563 72.6922 58.5619 71.9336L62.5178 66L72.0199 69.4553C73.9098 70.1426 75.1797 71.9555 75.1797 73.9664V85.2408C75.1797 86.0498 75.8355 86.7057 76.6445 86.7057C77.4535 86.7057 78.1094 86.0498 78.1094 85.2408V73.9664C78.1094 71.9297 77.3002 70.0195 75.9428 68.6068L76.3047 68.5035C76.6697 68.3992 77.1678 68.2564 77.6678 68.0113L81.4078 71.7514V85.2408C81.4078 86.0498 82.0637 86.7057 82.8727 86.7057C83.6816 86.7057 84.3375 86.0498 84.3375 85.2408V71.7514L88.0516 68.0373C88.249 68.1377 88.4565 68.2225 88.6748 68.2848L94.7248 70.0133C96.1057 70.4078 97.0703 71.6865 97.0703 73.1228V85.2408C97.0703 86.0498 97.7262 86.7057 98.5352 86.7057C99.3441 86.7057 100 86.0498 100 85.2408V73.1228C100 70.3849 98.1617 67.9476 95.5297 67.1955ZM9.39746 64.6082C6.65742 63.6223 5.28301 62.3078 4.69629 61.59C5.09629 60.5443 5.35566 59.3467 5.53125 58.0824C6.33906 60.0193 7.69199 61.6728 9.39746 62.8525V64.6082ZM17.7891 68.5726C16.5396 69.7598 14.5824 69.7596 13.3334 68.5724L11.9711 67.2779C12.201 66.8473 12.3273 66.359 12.3273 65.8475V64.2861C13.3492 64.6055 14.4355 64.7777 15.5613 64.7777C16.6857 64.7777 17.7715 64.6047 18.7951 64.2871L18.7949 65.8473C18.7949 66.359 18.9211 66.8474 19.1512 67.2783L17.7891 68.5726ZM15.5617 61.848C11.1875 61.848 7.6291 58.2894 7.6291 53.9154C7.6291 53.1064 6.97324 52.4506 6.16426 52.4506C6.08223 52.4506 6.00215 52.459 5.92383 52.4721C5.92812 52.3461 5.93223 52.2199 5.93652 52.0951C5.96914 51.0879 6.00059 50.1365 6.05859 49.3205C6.2457 46.6885 7.29746 44.2631 9.02012 42.4908C10.7582 40.7025 13.0813 39.7178 15.5613 39.7178C18.0414 39.7178 20.3643 40.7025 22.1025 42.4908C23.8252 44.2631 24.877 46.6885 25.0641 49.3205C25.1219 50.1363 25.1535 51.0875 25.1867 52.0945C25.1896 52.181 25.1926 52.2687 25.1955 52.3558C23.6018 49.9004 21.1404 48.0908 17.9602 47.0689C15.0221 46.125 12.4951 46.1834 12.3885 46.1861C12.0049 46.1969 11.6408 46.3574 11.3746 46.6336L8.73164 49.3746C8.17012 49.957 8.18691 50.8844 8.76934 51.4459C9.35176 52.0074 10.2791 51.9904 10.8406 51.4082L13.0398 49.1275C14.9338 49.2201 21.027 49.9287 23.3967 55.1469C22.8004 58.9922 19.4953 61.848 15.5617 61.848ZM21.7244 64.6131L21.7246 62.866C23.4287 61.6928 24.7836 60.0424 25.592 58.0908C25.7676 59.3521 26.0268 60.5471 26.426 61.5904C25.8426 62.3013 24.4617 63.6275 21.7244 64.6131ZM35.8209 40.8486V37.2142C35.8209 36.9937 35.7711 36.776 35.6752 36.5773C34.7326 34.6254 34.2547 32.5543 34.2547 30.4215V27.2891C34.2547 21.1877 39.2186 16.224 45.3197 16.224H65.7824V30.4217C65.7824 32.5545 65.3045 34.6256 64.3619 36.5775C64.266 36.7762 64.2162 36.9939 64.2162 37.2144V41.3853C64.2162 45.3523 62.6215 49.0318 59.7258 51.7461C59.3643 52.0848 58.9891 52.4023 58.6012 52.6982C58.5926 52.7041 58.5844 52.7105 58.576 52.7166C55.8633 54.7762 52.5406 55.7771 49.0707 55.5523C41.6408 55.0713 35.8209 48.6127 35.8209 40.8486ZM44.0688 70.3234C44.0586 70.3336 44.035 70.3576 43.9871 70.3525C43.9395 70.3478 43.9207 70.3199 43.9127 70.3078L39.357 63.4742L40.823 61.9338L47.7342 66.6578L44.0688 70.3234ZM50.0186 64.6705L42.0859 59.2482V56.5139C44.1385 57.6234 46.4367 58.3174 48.8811 58.4756C49.2672 58.5006 49.651 58.5129 50.0336 58.5129C52.8346 58.5129 55.5303 57.8433 57.9512 56.5724V59.2482L50.0186 64.6705ZM56.1244 70.3082C56.1164 70.3203 56.0977 70.3482 56.05 70.3529C56.0022 70.359 55.9787 70.3338 55.9684 70.3238L52.3029 66.6584L59.2141 61.9342L60.6803 63.4746L56.1244 70.3082ZM82.8727 69.0723L79.5484 65.7482C79.6064 65.4848 79.6393 65.1963 79.6391 64.8781L79.6389 64.2599C80.5613 64.5627 81.5336 64.7424 82.5396 64.7724C82.6525 64.776 82.7645 64.7775 82.877 64.7775C83.9887 64.7775 85.0738 64.6096 86.1066 64.289V64.8789C86.1066 65.1711 86.1434 65.4574 86.2125 65.7326L82.8727 69.0723ZM88.3967 59.6086C86.8441 61.1152 84.7932 61.9109 82.6277 61.8441C78.3887 61.717 74.94 57.9832 74.94 53.5213V50.7828C74.94 50.5553 74.8871 50.331 74.7854 50.1277L73.8805 48.318C73.549 47.6549 73.3738 46.9127 73.3738 46.1713V46.084C73.3738 42.5734 76.2299 39.7176 79.7402 39.7176H92.3717V45.8015C92.3717 46.7848 92.1393 47.7693 91.6996 48.6488L90.9602 50.1277C90.8584 50.3312 90.8055 50.5553 90.8055 50.7828V53.9152C90.8055 56.0793 89.95 58.1012 88.3967 59.6086Z" fill="white"/>
<path d="M92.2703 74.3777C91.4613 74.3777 90.8054 75.0336 90.8054 75.8426V85.2401C90.8054 86.049 91.4613 86.7049 92.2703 86.7049C93.0792 86.7049 93.7351 86.049 93.7351 85.2401V75.8426C93.7351 75.0338 93.0792 74.3777 92.2703 74.3777Z" fill="white"/>
<path d="M7.72998 76.3141C6.921 76.3141 6.26514 76.9699 6.26514 77.7789V85.2401C6.26514 86.049 6.921 86.7049 7.72998 86.7049C8.53896 86.7049 9.19482 86.049 9.19482 85.2401V77.7789C9.19482 76.9701 8.53896 76.3141 7.72998 76.3141Z" fill="white"/>
<path d="M62.018 30.9521C56.4777 25.4119 44.8861 26.4711 40.1592 27.1836C38.6703 27.408 37.5898 28.668 37.5898 30.1795V33.5541C37.5898 34.3631 38.2457 35.0189 39.0547 35.0189C39.8637 35.0189 40.5195 34.3631 40.5195 33.5541V30.1793C40.5195 30.1295 40.5523 30.0869 40.5961 30.0803C42.4842 29.7957 46.2309 29.3566 50.1127 29.6154C54.6807 29.9195 57.9893 31.0662 59.9465 33.0236C60.5186 33.5957 61.4461 33.5957 62.018 33.0236C62.59 32.4515 62.59 31.524 62.018 30.9521Z" fill="white"/>
<path d="M32.7898 77.5104C31.9808 77.5104 31.325 78.1662 31.325 78.9752V85.2403C31.325 86.0492 31.9808 86.7051 32.7898 86.7051C33.5988 86.7051 34.2546 86.0492 34.2546 85.2403V78.9752C34.2546 78.1664 33.5988 77.5104 32.7898 77.5104Z" fill="white"/>
<path d="M67.2473 77.5104C66.4383 77.5104 65.7825 78.1662 65.7825 78.9752V85.2403C65.7825 86.0492 66.4383 86.7051 67.2473 86.7051C68.0563 86.7051 68.7122 86.0492 68.7122 85.2403V78.9752C68.7122 78.1664 68.0563 77.5104 67.2473 77.5104Z" fill="white"/>
</svg>
