<svg width="54" height="54" viewBox="0 0 54 54" fill="none" xmlns="http://www.w3.org/2000/svg">
<g clip-path="url(#clip0)">
<path d="M50.7395 19.832C50.3752 19.6145 49.9235 19.6043 49.55 19.8053L41.7558 24.0005V20.4054C41.7558 19.7397 41.216 19.2 40.5505 19.2H38.5902C41.0349 17.2173 42.6006 14.191 42.6006 10.8054C42.6007 4.84733 37.7533 0 31.7951 0C26.7096 0 22.434 3.53183 21.2906 8.27127C19.7949 6.46649 17.5373 5.31477 15.0156 5.31477C10.5226 5.31477 6.86751 8.96999 6.86751 13.4628C6.86751 15.6987 7.77306 17.7265 9.23623 19.2003H8.13566C7.46994 19.2003 6.93026 19.74 6.93026 20.4057V25.8773H3.87874C3.21302 25.8773 2.67334 26.417 2.67334 27.0827V31.8229C2.67334 32.4886 3.21302 33.0283 3.87874 33.0283H6.93016V38.4999C6.93016 39.1656 7.46984 39.7053 8.13556 39.7053H22.3554L15.822 52.2376C15.5142 52.8278 15.7433 53.5559 16.3336 53.8636C16.5117 53.9564 16.7021 54.0004 16.8898 54.0004C17.3246 54.0004 17.7446 53.7643 17.9595 53.3521L24.3428 41.1074L30.7262 53.3521C30.9411 53.7645 31.3612 54.0004 31.7961 54.0004C31.9837 54.0004 32.1743 53.9564 32.3522 53.8636C32.9425 53.5559 33.1716 52.8278 32.8637 52.2376L26.3304 39.7053H40.5504C41.216 39.7053 41.7558 39.1656 41.7558 38.4999V34.9047L49.55 39.0999C49.7287 39.196 49.9249 39.2439 50.1212 39.2439C50.3353 39.2439 50.5493 39.1868 50.7395 39.0734C51.1038 38.8558 51.3266 38.4628 51.3266 38.0386V20.8667C51.3266 20.4424 51.1038 20.0496 50.7395 19.832ZM6.93026 30.6172H5.08414V28.2877H6.93026V30.6172ZM31.7951 2.41069C36.4239 2.41069 40.1899 6.17656 40.1899 10.8055C40.1899 15.4344 36.424 19.2001 31.7951 19.2001C27.1663 19.2001 23.4004 15.4343 23.4004 10.8055C23.4005 6.17666 27.1664 2.41069 31.7951 2.41069ZM22.5905 16.4588C23.2343 17.5033 24.051 18.4303 25.0002 19.2001H20.7949C21.5658 18.4237 22.1801 17.4925 22.5905 16.4588ZM15.0156 7.72536C18.1791 7.72536 20.753 10.2991 20.753 13.4627C20.753 16.6264 18.1792 19.2002 15.0156 19.2002C11.8521 19.2002 9.2782 16.6265 9.2782 13.4627C9.27831 10.2991 11.8521 7.72536 15.0156 7.72536ZM39.3451 26.0181V32.8866V37.2941H24.3646C24.3624 37.2941 24.3603 37.2941 24.3581 37.2941H24.3262C24.3249 37.2941 24.3235 37.2941 24.3221 37.2941H9.34096V31.8225V27.0823V21.6107H39.3451V26.0181ZM48.9159 36.0206L41.7558 32.1665V26.7383L48.9159 22.8843V36.0206Z" fill="black"/>
<path d="M15.0156 9.80127C12.9966 9.80127 11.3541 11.4438 11.3541 13.4627C11.3541 15.4817 12.9967 17.1242 15.0156 17.1242C17.0346 17.1242 18.677 15.4816 18.677 13.4627C18.6771 11.4438 17.0346 9.80127 15.0156 9.80127ZM15.0156 14.9545C14.1929 14.9545 13.5237 14.2853 13.5237 13.4626C13.5237 12.64 14.1929 11.9708 15.0156 11.9708C15.8382 11.9708 16.5074 12.64 16.5074 13.4626C16.5074 14.2853 15.8381 14.9545 15.0156 14.9545Z" fill="black"/>
<path d="M31.7951 5.54712C28.8956 5.54712 26.5368 7.90603 26.5368 10.8055C26.5368 13.7048 28.8956 16.0637 31.7951 16.0637C34.6945 16.0637 37.0533 13.7048 37.0533 10.8055C37.0533 7.90603 34.6946 5.54712 31.7951 5.54712ZM31.7951 13.653C30.225 13.653 28.9475 12.3756 28.9475 10.8055C28.9475 9.23535 30.225 7.95781 31.7951 7.95781C33.3652 7.95781 34.6426 9.23525 34.6426 10.8055C34.6426 12.3757 33.3652 13.653 31.7951 13.653Z" fill="black"/>
<path d="M27.9062 25.116H14.8007C14.1682 25.116 13.6556 25.6287 13.6556 26.261V32.6439C13.6556 33.2764 14.1683 33.789 14.8007 33.789H27.9062C28.5387 33.789 29.0513 33.2763 29.0513 32.6439V26.261C29.0513 25.6288 28.5386 25.116 27.9062 25.116ZM26.7611 31.4988H15.9458V27.4062H26.7612V31.4988H26.7611Z" fill="black"/>
<path d="M34.2284 28.6718C34.8941 28.6718 35.4338 28.1321 35.4338 27.4664C35.4338 26.8007 34.8941 26.261 34.2284 26.261C33.5626 26.261 33.0229 26.8007 33.0229 27.4664C33.0229 28.1321 33.5626 28.6718 34.2284 28.6718Z" fill="black"/>
<path d="M34.2284 32.6432C34.8941 32.6432 35.4338 32.1035 35.4338 31.4378C35.4338 30.7721 34.8941 30.2324 34.2284 30.2324C33.5626 30.2324 33.0229 30.7721 33.0229 31.4378C33.0229 32.1035 33.5626 32.6432 34.2284 32.6432Z" fill="black"/>
</g>
<defs>
<clipPath id="clip0">
<rect width="54" height="54" fill="white"/>
</clipPath>
</defs>
</svg>
