<svg width="25" height="25" viewBox="0 0 25 25" fill="none" xmlns="http://www.w3.org/2000/svg">
<g clip-path="url(#clip0)">
<path d="M24.568 6.59016C24.2619 5.26061 23.1744 4.27971 21.8653 4.13339C18.7652 3.78732 15.6274 3.78552 12.504 3.78732C9.38013 3.78552 6.24181 3.78732 3.14168 4.13339C1.83329 4.27971 0.746581 5.26061 0.440516 6.59016C0.00490324 8.48358 0 10.5504 0 12.4998C0 14.4493 0 16.5158 0.435613 18.409C0.741161 19.7383 1.82813 20.7192 3.13729 20.8658C6.23716 21.2121 9.37523 21.2139 12.4991 21.2121C15.6235 21.2139 18.7608 21.2121 21.8604 20.8658C23.1688 20.7195 24.2565 19.7385 24.5626 18.409C24.9985 16.5156 25 14.449 25 12.4998C25 10.5504 25.0036 8.48358 24.568 6.59016ZM9.27381 16.3801C9.27381 13.6147 9.27381 10.8782 9.27381 8.11248C11.9234 9.49494 14.5554 10.8681 17.2217 12.2591C14.5636 13.6376 11.9303 15.0025 9.27381 16.3801Z" fill="black"/>
</g>
<defs>
<clipPath id="clip0">
<rect width="25" height="25" fill="white"/>
</clipPath>
</defs>
</svg>
