<svg width="703" height="490" viewBox="0 0 703 490" fill="none" xmlns="http://www.w3.org/2000/svg">
<path d="M88 0H456L108 451H88V0Z" fill="#E95B8B"/>
<path d="M275.5 234L328 451H108L275.5 234Z" fill="#CABA10"/>
<mask id="path-3-inside-1" fill="white">
<path fill-rule="evenodd" clip-rule="evenodd" d="M75.128 64.9794C75.2644 66.1709 75.614 67.3281 76.1601 68.3958L88.3304 92.1899C89.3044 94.0942 88.8201 96.4199 87.1668 97.7771C85.8359 98.8698 85.236 100.62 85.6171 102.3L86.8296 107.643C87.7244 111.586 86.1568 115.68 82.8573 118.017L55.0055 137.742C54.4516 138.135 53.939 138.582 53.4758 139.078L31.8493 162.241C29.922 164.305 28.9574 167.088 29.1936 169.902L30.7834 188.838C31.1277 192.938 27.6154 196.317 23.5319 195.815C20.8743 195.489 18.2894 196.829 17.0254 199.19L2.52619 226.268C0.947958 229.216 0.947144 232.757 2.52402 235.705L3.90897 238.294C4.63762 239.657 5.67201 240.832 6.931 241.727L20.1233 251.11C21.4081 252.024 22.4053 253.285 22.9977 254.746C24.7119 258.975 29.5238 261.02 33.7577 259.319L36.203 258.336C38.5256 257.403 41.1137 257.375 43.456 258.258L69.2566 267.977C70.4339 268.42 71.6843 268.638 72.9422 268.618L85.6764 268.413C88.2647 268.372 90.7682 269.336 92.6605 271.102L102.109 279.922C105.94 283.499 111.884 283.509 115.729 279.947L118.561 277.323C120.207 275.797 122.32 274.87 124.558 274.69L153.001 272.408C156.018 272.166 158.595 270.14 159.543 267.265C160.385 264.707 162.532 262.795 165.17 262.252L174.659 260.299C176.693 259.881 178.339 258.393 178.961 256.412C179.872 253.508 182.899 251.827 185.846 252.59L186.878 252.857C187.988 253.144 189.152 253.147 190.263 252.867L209.875 247.919C212.237 247.324 214.735 247.61 216.901 248.726L251.508 266.552L270.23 278.73C273.739 281.013 275.455 285.241 274.529 289.324L272.57 297.964C271.894 300.945 272.619 304.072 274.538 306.452L277.763 310.452C279.096 312.104 280.93 313.278 282.988 313.796C287.37 314.899 290.426 318.861 290.378 323.38L290.284 332.281C290.253 335.296 291.583 338.164 293.905 340.088L300.854 345.843C302.568 347.262 303.759 349.212 304.239 351.384L307.376 365.562C308.283 369.664 305.576 373.692 301.434 374.4C299.943 374.655 298.41 374.444 297.043 373.796L287.801 369.413C285.826 368.476 283.531 368.489 281.567 369.448L279.644 370.387C277.687 371.342 275.328 370.785 274.004 369.056C272.617 367.244 270.107 366.731 268.121 367.854L267.299 368.318C265.078 369.573 263.971 372.158 264.594 374.631L266.063 380.455C266.488 382.142 266.467 383.91 266 385.585L263.974 392.853C263.523 394.472 262.671 395.951 261.497 397.154L247.296 411.702C245.876 413.158 244.95 415.022 244.648 417.033L244.305 419.319C243.924 421.855 242.038 423.905 239.542 424.495L237.638 424.944C234.663 425.647 233.126 428.945 234.5 431.675C234.947 432.562 235.662 433.286 236.543 433.744L250.809 441.163C252.348 441.964 254.241 441.279 254.912 439.68C255.647 437.928 257.818 437.309 259.366 438.411L260.438 439.174C261.55 439.965 262.987 440.138 264.255 439.633L278.305 434.038C281.464 432.78 285.073 433.92 286.936 436.766L288.471 439.11C290.443 442.124 294.811 442.261 296.969 439.377C298.322 437.568 298.35 435.091 297.037 433.252L290.921 424.683C290.553 424.168 290.4 423.53 290.494 422.904L291.204 418.191C291.435 416.66 293.594 416.534 294.001 418.028C294.141 418.54 294.552 418.933 295.07 419.049L296.608 419.392C298.705 419.86 300.801 418.608 301.383 416.54L302.459 412.717C303.294 409.75 305.715 407.497 308.734 406.878L313.949 405.808C317.029 405.176 319.632 403.132 320.977 400.291L322.087 397.947C323.68 394.581 323.272 390.609 321.027 387.639L313.192 377.268C312.493 376.343 312.393 375.097 312.936 374.073C313.887 372.279 316.314 371.94 317.721 373.403L322.286 378.151C326.346 382.374 333.443 380.74 335.248 375.167L336.695 370.698C337.613 367.863 339.748 365.584 342.518 364.485L348.33 362.177C349.305 361.79 350.333 361.559 351.379 361.492L377.789 359.794C379.452 359.687 381.043 359.076 382.351 358.041L382.974 357.548C384.909 356.017 387.518 355.647 389.803 356.58L392.3 357.6C397.148 359.58 397.068 366.473 392.175 368.339C390.889 368.83 389.82 369.764 389.162 370.973L388.937 371.385C387.101 374.757 388.304 378.978 391.642 380.876L406.198 389.153C408.483 390.452 411.188 390.799 413.727 390.119L436.056 384.141C438.626 383.453 441.37 384.108 443.352 385.882L446.849 389.011C447.97 390.014 449.676 389.977 450.753 388.927C452.131 387.583 454.417 387.958 455.295 389.672L457.784 394.533C459.501 397.886 458.208 401.996 454.88 403.761L414.124 425.374C413.132 425.9 412.463 426.88 412.333 427.994C412.092 430.082 413.777 431.889 415.876 431.794L421.09 431.557C422.859 431.477 424.603 431.996 426.039 433.032L436.254 440.397C437.91 441.591 439.893 442.25 441.934 442.284L446.178 442.355C448.272 442.391 450.303 443.083 451.983 444.334L454.533 446.233C457.713 448.601 459.194 452.624 458.308 456.488L454.127 474.722C453.285 478.393 454.577 482.225 457.469 484.637L460.369 487.055C462.212 488.592 464.545 489.415 466.944 489.374L477.473 489.195C480.268 489.147 482.916 487.932 484.774 485.843L501.469 467.074C503.332 464.978 505.991 463.762 508.795 463.721L519.125 463.571C522.247 463.525 525.168 462.024 527.023 459.513L534.895 448.855C537.505 445.322 542.116 443.905 546.26 445.365L549.394 446.468C550.808 446.966 552.316 447.14 553.805 446.977L569.562 445.25C574.077 444.756 577.691 441.281 578.363 436.789L579.446 429.548C579.603 428.496 580.202 427.561 581.092 426.978C583.787 425.211 583.129 421.091 580.019 420.25L575.87 419.129C574.464 418.749 572.965 418.926 571.685 419.622L561.84 424.981C560.009 425.978 557.784 425.914 556.013 424.815C554.049 423.597 551.549 423.661 549.651 424.979L542.273 430.103C540.146 431.581 537.528 432.175 534.971 431.761L527.258 430.513C523.379 429.885 520.506 426.569 520.438 422.64C520.402 420.563 519.571 418.579 518.115 417.096L507.422 406.198C506.312 405.067 504.949 404.215 503.445 403.714L480.99 396.232C480.232 395.979 479.514 395.619 478.859 395.163L474.831 392.355C470.268 389.175 471.793 382.071 477.258 381.043C477.803 380.94 478.359 380.911 478.912 380.954L501.344 382.726C503.915 382.929 506.466 382.13 508.462 380.497L516.28 374.103L543.169 353.275C544.587 352.176 546.275 351.479 548.055 351.257L558.389 349.968C559.23 349.863 560.054 349.652 560.841 349.34L568.836 346.166L580.612 341.688C582.441 340.992 584.285 340.076 585.916 338.993C590.032 336.259 598.458 330.591 605.278 325.963C610.58 322.364 621.582 317.976 627.922 317.046L630.849 316.617C635.378 315.954 638.878 312.3 639.346 307.747L641.206 289.675C641.593 285.91 644.073 282.687 647.613 281.347L651.591 279.84C654.612 278.697 656.894 276.165 657.719 273.042L657.837 272.595C658.875 268.667 662.186 265.757 666.214 265.232L690.205 262.108C694.247 261.582 697.564 258.656 698.591 254.712L702.013 241.573C702.614 239.263 702.37 236.815 701.324 234.67L696.926 225.652C696.105 223.97 694.777 222.589 693.128 221.704C690.069 220.062 688.24 216.794 688.442 213.328L688.681 209.22C688.774 207.615 689.695 206.173 691.111 205.413L691.943 204.967C695.305 203.162 694.764 198.182 691.091 197.142C688.027 196.275 686.974 192.468 689.157 190.149L696.812 182.017C699.214 179.465 700.105 175.843 699.161 172.468L696.469 162.845C695.448 159.195 691.62 157.102 687.996 158.214C686.066 158.805 683.973 158.502 682.291 157.386L675.73 153.034C674.341 152.112 672.743 151.553 671.082 151.406L665.377 150.902C663.63 150.748 662.036 149.839 661.014 148.414C659.545 146.367 656.957 145.45 654.527 146.117L651.607 146.917C649.536 147.485 647.337 147.371 645.335 146.592L626.745 139.356C624.107 138.329 621.128 139.569 619.998 142.166C618.674 145.207 614.904 146.285 612.172 144.403L605.803 140.016C605.168 139.579 604.587 139.07 604.069 138.5L592.063 125.267C589.063 121.96 584.234 121.042 580.23 123.019L563.623 131.217C560.81 132.606 557.509 132.594 554.706 131.186L545.468 126.543C543.603 125.605 541.491 125.275 539.429 125.598L526.472 127.628C524.089 128.001 521.651 127.501 519.608 126.219L518.33 125.417C515.085 123.38 513.289 119.669 513.705 115.86L514.043 112.762C514.254 110.83 513.898 108.879 513.018 107.147L504.808 90.9828C504.363 90.1077 503.792 89.3028 503.113 88.594L497.919 83.1724C496.026 81.1956 493.405 80.0816 490.667 80.0901L476.924 80.1326C472.675 80.1458 468.881 77.4724 467.465 73.4665L464.301 64.5188C463.045 60.9678 464.063 57.0099 466.876 54.5053L467.407 54.0328C468.596 52.9738 469.401 51.5499 469.693 49.9845C470.139 47.6028 469.354 45.1569 467.607 43.4783L459.99 36.1597C459.019 35.2273 458.247 34.1085 457.719 32.8704L453.046 21.9102C451.564 18.4343 448.25 16.0906 444.479 15.852L430.882 14.9918C428.399 14.8346 425.981 15.8309 424.329 17.6923C422.655 19.5779 420.197 20.5743 417.683 20.3865L403.681 19.3402C399.529 19.0299 395.62 21.3245 393.866 25.1005L392.245 28.5918C390.591 32.1536 387.005 34.4176 383.078 34.3795L349.934 34.058C346.611 34.0257 343.49 35.6463 341.604 38.3825L337.101 44.9151L331.076 55.9474C329.824 58.2395 329.519 60.9305 330.225 63.4448L332.814 72.6601C333.438 74.8811 332.55 77.2503 330.621 78.5149C328.384 79.9813 325.404 79.547 323.679 77.503L319.958 73.0951C318.188 70.999 315.635 69.7218 312.897 69.5625L299.924 68.8079C298.271 68.7117 296.619 69.0276 295.118 69.7272L292.515 70.9409C288.291 72.9094 283.263 71.3949 280.83 67.4213L280.126 66.2724C277.997 62.7948 273.531 61.5707 269.926 63.4762L269.057 63.9357C268.284 64.3443 267.648 64.9712 267.228 65.7385C265.629 68.6632 261.503 68.8625 259.63 66.1055L259.536 65.9672C258.574 64.5522 256.902 63.7944 255.204 64.0046L252.126 64.3857C250.44 64.5944 248.799 63.742 248.001 62.2423C247.265 60.8586 245.804 60.0156 244.238 60.0702L233.606 60.4411C232.321 60.4859 231.096 60.9936 230.157 61.8704L229.298 62.6719C227.145 64.6808 223.669 64.0754 222.322 61.457C221.453 59.7674 219.604 58.8183 217.725 59.0964L215.752 59.3883C212.362 59.8897 209.116 57.8351 208.118 54.557C207.171 51.4432 204.182 49.4104 200.938 49.6738L199.462 49.7937C198.076 49.9062 196.684 49.6874 195.4 49.1553L168.41 37.9706C167.291 37.5067 166.096 37.2501 164.885 37.2134L109.226 35.5229C105.973 35.4241 102.876 36.9145 100.923 39.518L96.4107 45.5338C94.485 48.1012 91.4441 49.5883 88.2353 49.5319L84.7381 49.4705C78.6952 49.3643 73.9399 54.6016 74.6273 60.6063L75.128 64.9794Z"/>
</mask>
<path fill-rule="evenodd" clip-rule="evenodd" d="M75.128 64.9794C75.2644 66.1709 75.614 67.3281 76.1601 68.3958L88.3304 92.1899C89.3044 94.0942 88.8201 96.4199 87.1668 97.7771C85.8359 98.8698 85.236 100.62 85.6171 102.3L86.8296 107.643C87.7244 111.586 86.1568 115.68 82.8573 118.017L55.0055 137.742C54.4516 138.135 53.939 138.582 53.4758 139.078L31.8493 162.241C29.922 164.305 28.9574 167.088 29.1936 169.902L30.7834 188.838C31.1277 192.938 27.6154 196.317 23.5319 195.815C20.8743 195.489 18.2894 196.829 17.0254 199.19L2.52619 226.268C0.947958 229.216 0.947144 232.757 2.52402 235.705L3.90897 238.294C4.63762 239.657 5.67201 240.832 6.931 241.727L20.1233 251.11C21.4081 252.024 22.4053 253.285 22.9977 254.746C24.7119 258.975 29.5238 261.02 33.7577 259.319L36.203 258.336C38.5256 257.403 41.1137 257.375 43.456 258.258L69.2566 267.977C70.4339 268.42 71.6843 268.638 72.9422 268.618L85.6764 268.413C88.2647 268.372 90.7682 269.336 92.6605 271.102L102.109 279.922C105.94 283.499 111.884 283.509 115.729 279.947L118.561 277.323C120.207 275.797 122.32 274.87 124.558 274.69L153.001 272.408C156.018 272.166 158.595 270.14 159.543 267.265C160.385 264.707 162.532 262.795 165.17 262.252L174.659 260.299C176.693 259.881 178.339 258.393 178.961 256.412C179.872 253.508 182.899 251.827 185.846 252.59L186.878 252.857C187.988 253.144 189.152 253.147 190.263 252.867L209.875 247.919C212.237 247.324 214.735 247.61 216.901 248.726L251.508 266.552L270.23 278.73C273.739 281.013 275.455 285.241 274.529 289.324L272.57 297.964C271.894 300.945 272.619 304.072 274.538 306.452L277.763 310.452C279.096 312.104 280.93 313.278 282.988 313.796C287.37 314.899 290.426 318.861 290.378 323.38L290.284 332.281C290.253 335.296 291.583 338.164 293.905 340.088L300.854 345.843C302.568 347.262 303.759 349.212 304.239 351.384L307.376 365.562C308.283 369.664 305.576 373.692 301.434 374.4C299.943 374.655 298.41 374.444 297.043 373.796L287.801 369.413C285.826 368.476 283.531 368.489 281.567 369.448L279.644 370.387C277.687 371.342 275.328 370.785 274.004 369.056C272.617 367.244 270.107 366.731 268.121 367.854L267.299 368.318C265.078 369.573 263.971 372.158 264.594 374.631L266.063 380.455C266.488 382.142 266.467 383.91 266 385.585L263.974 392.853C263.523 394.472 262.671 395.951 261.497 397.154L247.296 411.702C245.876 413.158 244.95 415.022 244.648 417.033L244.305 419.319C243.924 421.855 242.038 423.905 239.542 424.495L237.638 424.944C234.663 425.647 233.126 428.945 234.5 431.675C234.947 432.562 235.662 433.286 236.543 433.744L250.809 441.163C252.348 441.964 254.241 441.279 254.912 439.68C255.647 437.928 257.818 437.309 259.366 438.411L260.438 439.174C261.55 439.965 262.987 440.138 264.255 439.633L278.305 434.038C281.464 432.78 285.073 433.92 286.936 436.766L288.471 439.11C290.443 442.124 294.811 442.261 296.969 439.377C298.322 437.568 298.35 435.091 297.037 433.252L290.921 424.683C290.553 424.168 290.4 423.53 290.494 422.904L291.204 418.191C291.435 416.66 293.594 416.534 294.001 418.028C294.141 418.54 294.552 418.933 295.07 419.049L296.608 419.392C298.705 419.86 300.801 418.608 301.383 416.54L302.459 412.717C303.294 409.75 305.715 407.497 308.734 406.878L313.949 405.808C317.029 405.176 319.632 403.132 320.977 400.291L322.087 397.947C323.68 394.581 323.272 390.609 321.027 387.639L313.192 377.268C312.493 376.343 312.393 375.097 312.936 374.073C313.887 372.279 316.314 371.94 317.721 373.403L322.286 378.151C326.346 382.374 333.443 380.74 335.248 375.167L336.695 370.698C337.613 367.863 339.748 365.584 342.518 364.485L348.33 362.177C349.305 361.79 350.333 361.559 351.379 361.492L377.789 359.794C379.452 359.687 381.043 359.076 382.351 358.041L382.974 357.548C384.909 356.017 387.518 355.647 389.803 356.58L392.3 357.6C397.148 359.58 397.068 366.473 392.175 368.339C390.889 368.83 389.82 369.764 389.162 370.973L388.937 371.385C387.101 374.757 388.304 378.978 391.642 380.876L406.198 389.153C408.483 390.452 411.188 390.799 413.727 390.119L436.056 384.141C438.626 383.453 441.37 384.108 443.352 385.882L446.849 389.011C447.97 390.014 449.676 389.977 450.753 388.927C452.131 387.583 454.417 387.958 455.295 389.672L457.784 394.533C459.501 397.886 458.208 401.996 454.88 403.761L414.124 425.374C413.132 425.9 412.463 426.88 412.333 427.994C412.092 430.082 413.777 431.889 415.876 431.794L421.09 431.557C422.859 431.477 424.603 431.996 426.039 433.032L436.254 440.397C437.91 441.591 439.893 442.25 441.934 442.284L446.178 442.355C448.272 442.391 450.303 443.083 451.983 444.334L454.533 446.233C457.713 448.601 459.194 452.624 458.308 456.488L454.127 474.722C453.285 478.393 454.577 482.225 457.469 484.637L460.369 487.055C462.212 488.592 464.545 489.415 466.944 489.374L477.473 489.195C480.268 489.147 482.916 487.932 484.774 485.843L501.469 467.074C503.332 464.978 505.991 463.762 508.795 463.721L519.125 463.571C522.247 463.525 525.168 462.024 527.023 459.513L534.895 448.855C537.505 445.322 542.116 443.905 546.26 445.365L549.394 446.468C550.808 446.966 552.316 447.14 553.805 446.977L569.562 445.25C574.077 444.756 577.691 441.281 578.363 436.789L579.446 429.548C579.603 428.496 580.202 427.561 581.092 426.978C583.787 425.211 583.129 421.091 580.019 420.25L575.87 419.129C574.464 418.749 572.965 418.926 571.685 419.622L561.84 424.981C560.009 425.978 557.784 425.914 556.013 424.815C554.049 423.597 551.549 423.661 549.651 424.979L542.273 430.103C540.146 431.581 537.528 432.175 534.971 431.761L527.258 430.513C523.379 429.885 520.506 426.569 520.438 422.64C520.402 420.563 519.571 418.579 518.115 417.096L507.422 406.198C506.312 405.067 504.949 404.215 503.445 403.714L480.99 396.232C480.232 395.979 479.514 395.619 478.859 395.163L474.831 392.355C470.268 389.175 471.793 382.071 477.258 381.043C477.803 380.94 478.359 380.911 478.912 380.954L501.344 382.726C503.915 382.929 506.466 382.13 508.462 380.497L516.28 374.103L543.169 353.275C544.587 352.176 546.275 351.479 548.055 351.257L558.389 349.968C559.23 349.863 560.054 349.652 560.841 349.34L568.836 346.166L580.612 341.688C582.441 340.992 584.285 340.076 585.916 338.993C590.032 336.259 598.458 330.591 605.278 325.963C610.58 322.364 621.582 317.976 627.922 317.046L630.849 316.617C635.378 315.954 638.878 312.3 639.346 307.747L641.206 289.675C641.593 285.91 644.073 282.687 647.613 281.347L651.591 279.84C654.612 278.697 656.894 276.165 657.719 273.042L657.837 272.595C658.875 268.667 662.186 265.757 666.214 265.232L690.205 262.108C694.247 261.582 697.564 258.656 698.591 254.712L702.013 241.573C702.614 239.263 702.37 236.815 701.324 234.67L696.926 225.652C696.105 223.97 694.777 222.589 693.128 221.704C690.069 220.062 688.24 216.794 688.442 213.328L688.681 209.22C688.774 207.615 689.695 206.173 691.111 205.413L691.943 204.967C695.305 203.162 694.764 198.182 691.091 197.142C688.027 196.275 686.974 192.468 689.157 190.149L696.812 182.017C699.214 179.465 700.105 175.843 699.161 172.468L696.469 162.845C695.448 159.195 691.62 157.102 687.996 158.214C686.066 158.805 683.973 158.502 682.291 157.386L675.73 153.034C674.341 152.112 672.743 151.553 671.082 151.406L665.377 150.902C663.63 150.748 662.036 149.839 661.014 148.414C659.545 146.367 656.957 145.45 654.527 146.117L651.607 146.917C649.536 147.485 647.337 147.371 645.335 146.592L626.745 139.356C624.107 138.329 621.128 139.569 619.998 142.166C618.674 145.207 614.904 146.285 612.172 144.403L605.803 140.016C605.168 139.579 604.587 139.07 604.069 138.5L592.063 125.267C589.063 121.96 584.234 121.042 580.23 123.019L563.623 131.217C560.81 132.606 557.509 132.594 554.706 131.186L545.468 126.543C543.603 125.605 541.491 125.275 539.429 125.598L526.472 127.628C524.089 128.001 521.651 127.501 519.608 126.219L518.33 125.417C515.085 123.38 513.289 119.669 513.705 115.86L514.043 112.762C514.254 110.83 513.898 108.879 513.018 107.147L504.808 90.9828C504.363 90.1077 503.792 89.3028 503.113 88.594L497.919 83.1724C496.026 81.1956 493.405 80.0816 490.667 80.0901L476.924 80.1326C472.675 80.1458 468.881 77.4724 467.465 73.4665L464.301 64.5188C463.045 60.9678 464.063 57.0099 466.876 54.5053L467.407 54.0328C468.596 52.9738 469.401 51.5499 469.693 49.9845C470.139 47.6028 469.354 45.1569 467.607 43.4783L459.99 36.1597C459.019 35.2273 458.247 34.1085 457.719 32.8704L453.046 21.9102C451.564 18.4343 448.25 16.0906 444.479 15.852L430.882 14.9918C428.399 14.8346 425.981 15.8309 424.329 17.6923C422.655 19.5779 420.197 20.5743 417.683 20.3865L403.681 19.3402C399.529 19.0299 395.62 21.3245 393.866 25.1005L392.245 28.5918C390.591 32.1536 387.005 34.4176 383.078 34.3795L349.934 34.058C346.611 34.0257 343.49 35.6463 341.604 38.3825L337.101 44.9151L331.076 55.9474C329.824 58.2395 329.519 60.9305 330.225 63.4448L332.814 72.6601C333.438 74.8811 332.55 77.2503 330.621 78.5149C328.384 79.9813 325.404 79.547 323.679 77.503L319.958 73.0951C318.188 70.999 315.635 69.7218 312.897 69.5625L299.924 68.8079C298.271 68.7117 296.619 69.0276 295.118 69.7272L292.515 70.9409C288.291 72.9094 283.263 71.3949 280.83 67.4213L280.126 66.2724C277.997 62.7948 273.531 61.5707 269.926 63.4762L269.057 63.9357C268.284 64.3443 267.648 64.9712 267.228 65.7385C265.629 68.6632 261.503 68.8625 259.63 66.1055L259.536 65.9672C258.574 64.5522 256.902 63.7944 255.204 64.0046L252.126 64.3857C250.44 64.5944 248.799 63.742 248.001 62.2423C247.265 60.8586 245.804 60.0156 244.238 60.0702L233.606 60.4411C232.321 60.4859 231.096 60.9936 230.157 61.8704L229.298 62.6719C227.145 64.6808 223.669 64.0754 222.322 61.457C221.453 59.7674 219.604 58.8183 217.725 59.0964L215.752 59.3883C212.362 59.8897 209.116 57.8351 208.118 54.557C207.171 51.4432 204.182 49.4104 200.938 49.6738L199.462 49.7937C198.076 49.9062 196.684 49.6874 195.4 49.1553L168.41 37.9706C167.291 37.5067 166.096 37.2501 164.885 37.2134L109.226 35.5229C105.973 35.4241 102.876 36.9145 100.923 39.518L96.4107 45.5338C94.485 48.1012 91.4441 49.5883 88.2353 49.5319L84.7381 49.4705C78.6952 49.3643 73.9399 54.6016 74.6273 60.6063L75.128 64.9794Z" stroke="white" stroke-opacity="0.5" stroke-width="10" mask="url(#path-3-inside-1)"/>
</svg>
